<?xml version="1.0" encoding="UTF-8" standalone="no"?>
<!DOCTYPE svg PUBLIC "-//W3C//DTD SVG 1.1//EN"
 "http://www.w3.org/Graphics/SVG/1.1/DTD/svg11.dtd">
<!-- Generated by graphviz version 2.43.0 (0)
 -->
<!-- Title: InvertedIndexPipeline Pages: 1 -->
<svg width="1372pt" height="244pt"
 viewBox="0.00 0.00 1372.40 244.40" xmlns="http://www.w3.org/2000/svg" xmlns:xlink="http://www.w3.org/1999/xlink">
<g id="graph0" class="graph" transform="scale(1 1) rotate(0) translate(25.2 219.2)">
<title>InvertedIndexPipeline</title>
<polygon fill="#f8fafc" stroke="transparent" points="-25.2,25.2 -25.2,-219.2 1347.2,-219.2 1347.2,25.2 -25.2,25.2"/>
<text text-anchor="middle" x="82.5" y="-179.6" font-family="Noto Sans CJK SC" font-size="13.00" fill="#334155">从文档到可查询 Segment</text>
<g id="clust1" class="cluster">
<title>cluster_semantics</title>
<path fill="#eff6ff" stroke="#bfdbfe" stroke-width="1.2" d="M20,-52C20,-52 596,-52 596,-52 602,-52 608,-58 608,-64 608,-64 608,-130 608,-130 608,-136 602,-142 596,-142 596,-142 20,-142 20,-142 14,-142 8,-136 8,-130 8,-130 8,-64 8,-64 8,-58 14,-52 20,-52"/>
<text text-anchor="middle" x="63" y="-127.6" font-family="Noto Sans CJK SC" font-size="13.00" fill="#334155">① 定义词项语义</text>
</g>
<g id="clust2" class="cluster">
<title>cluster_build</title>
<path fill="#f5f3ff" stroke="#c4b5fd" stroke-width="1.2" d="M642,-52C642,-52 1067,-52 1067,-52 1073,-52 1079,-58 1079,-64 1079,-64 1079,-130 1079,-130 1079,-136 1073,-142 1067,-142 1067,-142 642,-142 642,-142 636,-142 630,-136 630,-130 630,-130 630,-64 630,-64 630,-58 636,-52 642,-52"/>
<text text-anchor="middle" x="678.5" y="-127.6" font-family="Noto Sans CJK SC" font-size="13.00" fill="#334155">② 聚合并写出</text>
</g>
<!-- document -->
<g id="node1" class="node">
<title>document</title>
<path fill="#ffffff" stroke="#cbd5e1" stroke-width="1.2" d="M150,-104C150,-104 36,-104 36,-104 30,-104 24,-98 24,-92 24,-92 24,-80 24,-80 24,-74 30,-68 36,-68 36,-68 150,-68 150,-68 156,-68 162,-74 162,-80 162,-80 162,-92 162,-92 162,-98 156,-104 150,-104"/>
<text text-anchor="start" x="57.5" y="-89.2" font-family="Noto Sans CJK SC" font-size="11.00" fill="#172033"> &#160;&#160;&#160;&#160;&#160;&#160;&#160;</text>
<text text-anchor="start" x="82.5" y="-89.2" font-family="Noto Sans CJK SC" font-weight="bold" font-size="11.00" fill="#172033">文档字段</text>
<text text-anchor="start" x="36" y="-78.2" font-family="Noto Sans CJK SC" font-size="11.00" fill="#172033"> &#160;&#160;&#160;&#160;&#160;&#160;&#160;</text>
<text text-anchor="start" x="61" y="-78.2" font-family="Noto Sans CJK SC" font-size="9.00" fill="#64748b">title / body / tags</text>
<text text-anchor="start" x="131" y="-78.2" font-family="Noto Sans CJK SC" font-size="11.00" fill="#172033"> &#160;&#160;&#160;&#160;&#160;</text>
</g>
<!-- analyzer -->
<g id="node2" class="node">
<title>analyzer</title>
<path fill="#dbeafe" stroke="#60a5fa" stroke-width="1.2" d="M367,-104C367,-104 228,-104 228,-104 222,-104 216,-98 216,-92 216,-92 216,-80 216,-80 216,-74 222,-68 228,-68 228,-68 367,-68 367,-68 373,-68 379,-74 379,-80 379,-80 379,-92 379,-92 379,-98 373,-104 367,-104"/>
<text text-anchor="start" x="260.5" y="-89.2" font-family="Noto Sans CJK SC" font-size="11.00" fill="#172033"> &#160;&#160;&#160;&#160;&#160;&#160;&#160;</text>
<text text-anchor="start" x="285.5" y="-89.2" font-family="Noto Sans CJK SC" font-weight="bold" font-size="11.00" fill="#172033">Analyzer</text>
<text text-anchor="start" x="228" y="-78.2" font-family="Noto Sans CJK SC" font-size="11.00" fill="#172033"> &#160;&#160;&#160;&#160;&#160;&#160;&#160;</text>
<text text-anchor="start" x="253" y="-78.2" font-family="Noto Sans CJK SC" font-size="9.00" fill="#475569">字符规范 · 分词 · 归一化</text>
<text text-anchor="start" x="348" y="-78.2" font-family="Noto Sans CJK SC" font-size="11.00" fill="#172033"> &#160;&#160;&#160;&#160;&#160;</text>
</g>
<!-- document&#45;&gt;analyzer -->
<g id="edge1" class="edge">
<title>document&#45;&gt;analyzer</title>
<path fill="none" stroke="#64748b" stroke-width="1.4" d="M162.23,-86C162.23,-86 208.97,-86 208.97,-86"/>
<polygon fill="#64748b" stroke="#64748b" stroke-width="1.4" points="208.97,-88.45 215.97,-86 208.97,-83.55 208.97,-88.45"/>
</g>
<!-- tokens -->
<g id="node3" class="node">
<title>tokens</title>
<path fill="#ffffff" stroke="#cbd5e1" stroke-width="1.2" d="M580,-104C580,-104 445,-104 445,-104 439,-104 433,-98 433,-92 433,-92 433,-80 433,-80 433,-74 439,-68 445,-68 445,-68 580,-68 580,-68 586,-68 592,-74 592,-80 592,-80 592,-92 592,-92 592,-98 586,-104 580,-104"/>
<text text-anchor="start" x="462" y="-89.2" font-family="Noto Sans CJK SC" font-size="11.00" fill="#172033"> &#160;&#160;&#160;&#160;&#160;&#160;&#160;</text>
<text text-anchor="start" x="487" y="-89.2" font-family="Noto Sans CJK SC" font-weight="bold" font-size="11.00" fill="#172033">Token Stream</text>
<text text-anchor="start" x="445" y="-78.2" font-family="Noto Sans CJK SC" font-size="11.00" fill="#172033"> &#160;&#160;&#160;&#160;&#160;&#160;&#160;</text>
<text text-anchor="start" x="470" y="-78.2" font-family="Noto Sans CJK SC" font-size="9.00" fill="#64748b">term · position · offset</text>
<text text-anchor="start" x="561" y="-78.2" font-family="Noto Sans CJK SC" font-size="11.00" fill="#172033"> &#160;&#160;&#160;&#160;&#160;</text>
</g>
<!-- analyzer&#45;&gt;tokens -->
<g id="edge2" class="edge">
<title>analyzer&#45;&gt;tokens</title>
<path fill="none" stroke="#64748b" stroke-width="1.4" d="M379.09,-86C379.09,-86 425.75,-86 425.75,-86"/>
<polygon fill="#64748b" stroke="#64748b" stroke-width="1.4" points="425.75,-88.45 432.75,-86 425.75,-83.55 425.75,-88.45"/>
</g>
<!-- buffer -->
<g id="node4" class="node">
<title>buffer</title>
<path fill="#ede9fe" stroke="#a78bfa" stroke-width="1.2" d="M817,-104C817,-104 658,-104 658,-104 652,-104 646,-98 646,-92 646,-92 646,-80 646,-80 646,-74 652,-68 658,-68 658,-68 817,-68 817,-68 823,-68 829,-74 829,-80 829,-80 829,-92 829,-92 829,-98 823,-104 817,-104"/>
<text text-anchor="start" x="691" y="-89.2" font-family="Noto Sans CJK SC" font-size="11.00" fill="#172033"> &#160;&#160;&#160;&#160;&#160;&#160;&#160;</text>
<text text-anchor="start" x="716" y="-89.2" font-family="Noto Sans CJK SC" font-weight="bold" font-size="11.00" fill="#172033">内存倒排结构</text>
<text text-anchor="start" x="658" y="-78.2" font-family="Noto Sans CJK SC" font-size="11.00" fill="#172033"> &#160;&#160;&#160;&#160;&#160;&#160;&#160;</text>
<text text-anchor="start" x="683" y="-78.2" font-family="Noto Sans CJK SC" font-size="9.00" fill="#475569">field → term → occurrences</text>
<text text-anchor="start" x="798" y="-78.2" font-family="Noto Sans CJK SC" font-size="11.00" fill="#172033"> &#160;&#160;&#160;&#160;&#160;</text>
</g>
<!-- tokens&#45;&gt;buffer -->
<g id="edge4" class="edge">
<title>tokens&#45;&gt;buffer</title>
<path fill="none" stroke="#64748b" stroke-width="1.4" d="M592.14,-86C592.14,-86 638.67,-86 638.67,-86"/>
<polygon fill="#64748b" stroke="#64748b" stroke-width="1.4" points="638.67,-88.45 645.67,-86 638.67,-83.55 638.67,-88.45"/>
</g>
<!-- segment -->
<g id="node5" class="node">
<title>segment</title>
<path fill="#ddd6fe" stroke="#8b5cf6" stroke-width="1.6" d="M1051,-104C1051,-104 895,-104 895,-104 889,-104 883,-98 883,-92 883,-92 883,-80 883,-80 883,-74 889,-68 895,-68 895,-68 1051,-68 1051,-68 1057,-68 1063,-74 1063,-80 1063,-80 1063,-92 1063,-92 1063,-98 1057,-104 1051,-104"/>
<text text-anchor="start" x="917.5" y="-89.2" font-family="Noto Sans CJK SC" font-size="11.00" fill="#172033"> &#160;&#160;&#160;&#160;&#160;&#160;&#160;</text>
<text text-anchor="start" x="942.5" y="-89.2" font-family="Noto Sans CJK SC" font-weight="bold" font-size="11.00" fill="#172033">不可变 Segment</text>
<text text-anchor="start" x="895" y="-78.2" font-family="Noto Sans CJK SC" font-size="11.00" fill="#172033"> &#160;&#160;&#160;&#160;&#160;&#160;&#160;</text>
<text text-anchor="start" x="920" y="-78.2" font-family="Noto Sans CJK SC" font-size="9.00" fill="#475569">按 term / docID 排序并压缩</text>
<text text-anchor="start" x="1032" y="-78.2" font-family="Noto Sans CJK SC" font-size="11.00" fill="#172033"> &#160;&#160;&#160;&#160;&#160;</text>
</g>
<!-- buffer&#45;&gt;segment -->
<g id="edge3" class="edge">
<title>buffer&#45;&gt;segment</title>
<path fill="none" stroke="#64748b" stroke-width="1.4" d="M829.22,-86C829.22,-86 875.69,-86 875.69,-86"/>
<polygon fill="#64748b" stroke="#64748b" stroke-width="1.4" points="875.69,-88.45 882.69,-86 875.69,-83.55 875.69,-88.45"/>
<text text-anchor="middle" x="841.96" y="-78.8" font-family="Noto Sans CJK SC" font-size="9.00" fill="#475569">flush</text>
</g>
<!-- dictionary -->
<g id="node6" class="node">
<title>dictionary</title>
<path fill="#d1fae5" stroke="#34d399" stroke-width="1.2" d="M1287,-172C1287,-172 1152,-172 1152,-172 1146,-172 1140,-166 1140,-160 1140,-160 1140,-148 1140,-148 1140,-142 1146,-136 1152,-136 1152,-136 1287,-136 1287,-136 1293,-136 1299,-142 1299,-148 1299,-148 1299,-160 1299,-160 1299,-166 1293,-172 1287,-172"/>
<text text-anchor="start" x="1163" y="-157.2" font-family="Noto Sans CJK SC" font-size="11.00" fill="#172033"> &#160;&#160;&#160;&#160;&#160;&#160;&#160;</text>
<text text-anchor="start" x="1188" y="-157.2" font-family="Noto Sans CJK SC" font-weight="bold" font-size="11.00" fill="#172033">Term Dictionary</text>
<text text-anchor="start" x="1152" y="-146.2" font-family="Noto Sans CJK SC" font-size="11.00" fill="#172033"> &#160;&#160;&#160;&#160;&#160;&#160;&#160;</text>
<text text-anchor="start" x="1177" y="-146.2" font-family="Noto Sans CJK SC" font-size="9.00" fill="#475569">term → stats / pointer</text>
<text text-anchor="start" x="1268" y="-146.2" font-family="Noto Sans CJK SC" font-size="11.00" fill="#172033"> &#160;&#160;&#160;&#160;&#160;</text>
</g>
<!-- segment&#45;&gt;dictionary -->
<g id="edge5" class="edge">
<title>segment&#45;&gt;dictionary</title>
<path fill="none" stroke="#64748b" stroke-width="1.4" d="M973,-104.22C973,-124.37 973,-154 973,-154 973,-154 1132.81,-154 1132.81,-154"/>
<polygon fill="#64748b" stroke="#64748b" stroke-width="1.4" points="1132.81,-156.45 1139.81,-154 1132.81,-151.55 1132.81,-156.45"/>
</g>
<!-- postings -->
<g id="node7" class="node">
<title>postings</title>
<path fill="#d1fae5" stroke="#34d399" stroke-width="1.2" d="M1288.5,-104C1288.5,-104 1150.5,-104 1150.5,-104 1144.5,-104 1138.5,-98 1138.5,-92 1138.5,-92 1138.5,-80 1138.5,-80 1138.5,-74 1144.5,-68 1150.5,-68 1150.5,-68 1288.5,-68 1288.5,-68 1294.5,-68 1300.5,-74 1300.5,-80 1300.5,-80 1300.5,-92 1300.5,-92 1300.5,-98 1294.5,-104 1288.5,-104"/>
<text text-anchor="start" x="1173" y="-89.2" font-family="Noto Sans CJK SC" font-size="11.00" fill="#172033"> &#160;&#160;&#160;&#160;&#160;&#160;&#160;</text>
<text text-anchor="start" x="1198" y="-89.2" font-family="Noto Sans CJK SC" font-weight="bold" font-size="11.00" fill="#172033">Posting Lists</text>
<text text-anchor="start" x="1150.5" y="-78.2" font-family="Noto Sans CJK SC" font-size="11.00" fill="#172033"> &#160;&#160;&#160;&#160;&#160;&#160;&#160;</text>
<text text-anchor="start" x="1175.5" y="-78.2" font-family="Noto Sans CJK SC" font-size="9.00" fill="#475569">docID · freq · positions</text>
<text text-anchor="start" x="1269.5" y="-78.2" font-family="Noto Sans CJK SC" font-size="11.00" fill="#172033"> &#160;&#160;&#160;&#160;&#160;</text>
</g>
<!-- segment&#45;&gt;postings -->
<g id="edge6" class="edge">
<title>segment&#45;&gt;postings</title>
<path fill="none" stroke="#64748b" stroke-width="1.4" d="M1063.04,-92C1063.04,-92 1131.28,-92 1131.28,-92"/>
<polygon fill="#64748b" stroke="#64748b" stroke-width="1.4" points="1131.28,-94.45 1138.28,-92 1131.28,-89.55 1131.28,-94.45"/>
</g>
<!-- columns -->
<g id="node8" class="node">
<title>columns</title>
<path fill="#d1fae5" stroke="#34d399" stroke-width="1.2" d="M1310,-36C1310,-36 1129,-36 1129,-36 1123,-36 1117,-30 1117,-24 1117,-24 1117,-12 1117,-12 1117,-6 1123,0 1129,0 1129,0 1310,0 1310,0 1316,0 1322,-6 1322,-12 1322,-12 1322,-24 1322,-24 1322,-30 1316,-36 1310,-36"/>
<text text-anchor="start" x="1184" y="-21.2" font-family="Noto Sans CJK SC" font-size="11.00" fill="#172033"> &#160;&#160;&#160;&#160;&#160;&#160;&#160;</text>
<text text-anchor="start" x="1209" y="-21.2" font-family="Noto Sans CJK SC" font-weight="bold" font-size="11.00" fill="#172033">旁路数据</text>
<text text-anchor="start" x="1129" y="-10.2" font-family="Noto Sans CJK SC" font-size="11.00" fill="#172033"> &#160;&#160;&#160;&#160;&#160;&#160;&#160;</text>
<text text-anchor="start" x="1154" y="-10.2" font-family="Noto Sans CJK SC" font-size="9.00" fill="#475569">norms · stored fields · doc values</text>
<text text-anchor="start" x="1291" y="-10.2" font-family="Noto Sans CJK SC" font-size="11.00" fill="#172033"> &#160;&#160;&#160;&#160;&#160;</text>
</g>
<!-- segment&#45;&gt;columns -->
<g id="edge7" class="edge">
<title>segment&#45;&gt;columns</title>
<path fill="none" stroke="#64748b" stroke-width="1.4" d="M1063.16,-80C1097.26,-80 1128,-80 1128,-80 1128,-80 1128,-43.27 1128,-43.27"/>
<polygon fill="#64748b" stroke="#64748b" stroke-width="1.4" points="1130.45,-43.27 1128,-36.27 1125.55,-43.27 1130.45,-43.27"/>
</g>
</g>
</svg>
