<?xml version="1.0" encoding="UTF-8" standalone="no"?>
<!DOCTYPE svg PUBLIC "-//W3C//DTD SVG 1.1//EN"
 "http://www.w3.org/Graphics/SVG/1.1/DTD/svg11.dtd">
<!-- Generated by graphviz version 2.43.0 (0)
 -->
<!-- Title: SegmentLifecycle Pages: 1 -->
<svg width="1417pt" height="284pt"
 viewBox="0.00 0.00 1417.40 284.40" xmlns="http://www.w3.org/2000/svg" xmlns:xlink="http://www.w3.org/1999/xlink">
<g id="graph0" class="graph" transform="scale(1 1) rotate(0) translate(25.2 259.2)">
<title>SegmentLifecycle</title>
<polygon fill="#f8fafc" stroke="transparent" points="-25.2,25.2 -25.2,-259.2 1392.2,-259.2 1392.2,25.2 -25.2,25.2"/>
<text text-anchor="middle" x="170.5" y="-219.6" font-family="Noto Sans CJK SC" font-size="13.00" fill="#334155">Lucene / Elasticsearch：不可变 Segment 的近实时写入</text>
<g id="clust1" class="cluster">
<title>cluster_recovery</title>
<path fill="#fffbeb" stroke="#fde68a" d="M274.5,-114C274.5,-114 684,-114 684,-114 690,-114 696,-120 696,-126 696,-126 696,-192 696,-192 696,-198 690,-204 684,-204 684,-204 274.5,-204 274.5,-204 268.5,-204 262.5,-198 262.5,-192 262.5,-192 262.5,-126 262.5,-126 262.5,-120 268.5,-114 274.5,-114"/>
<text text-anchor="middle" x="341.5" y="-189.6" font-family="Noto Sans CJK SC" font-size="13.00" fill="#334155">持久性（Elasticsearch）</text>
</g>
<g id="clust2" class="cluster">
<title>cluster_visibility</title>
<path fill="#eff6ff" stroke="#bfdbfe" d="M262,-16C262,-16 920,-16 920,-16 926,-16 932,-22 932,-28 932,-28 932,-94 932,-94 932,-100 926,-106 920,-106 920,-106 262,-106 262,-106 256,-106 250,-100 250,-94 250,-94 250,-28 250,-28 250,-22 256,-16 262,-16"/>
<text text-anchor="middle" x="290" y="-91.6" font-family="Noto Sans CJK SC" font-size="13.00" fill="#334155">搜索可见性</text>
</g>
<!-- write -->
<g id="node1" class="node">
<title>write</title>
<path fill="#dbeafe" stroke="#60a5fa" stroke-width="1.6" d="M198,-117C198,-117 12,-117 12,-117 6,-117 0,-111 0,-105 0,-105 0,-93 0,-93 0,-87 6,-81 12,-81 12,-81 198,-81 198,-81 204,-81 210,-87 210,-93 210,-93 210,-105 210,-105 210,-111 204,-117 198,-117"/>
<text text-anchor="start" x="56" y="-102.2" font-family="Noto Sans CJK SC" font-size="11.00" fill="#172033"> &#160;&#160;&#160;&#160;&#160;</text>
<text text-anchor="start" x="75" y="-102.2" font-family="Noto Sans CJK SC" font-weight="bold" font-size="11.00" fill="#172033">新增 / 更新文档</text>
<text text-anchor="start" x="12" y="-91.2" font-family="Noto Sans CJK SC" font-size="11.00" fill="#172033"> &#160;&#160;&#160;&#160;&#160;</text>
<text text-anchor="start" x="31" y="-91.2" font-family="Noto Sans CJK SC" font-size="9.00" fill="#475569">一次写入分成可见性与持久性两条路径</text>
<text text-anchor="start" x="185" y="-91.2" font-family="Noto Sans CJK SC" font-size="11.00" fill="#172033"> &#160;&#160;&#160;</text>
</g>
<!-- translog -->
<g id="node2" class="node">
<title>translog</title>
<path fill="#fef3c7" stroke="#f59e0b" stroke-width="1.2" d="M416.5,-166C416.5,-166 290.5,-166 290.5,-166 284.5,-166 278.5,-160 278.5,-154 278.5,-154 278.5,-142 278.5,-142 278.5,-136 284.5,-130 290.5,-130 290.5,-130 416.5,-130 416.5,-130 422.5,-130 428.5,-136 428.5,-142 428.5,-142 428.5,-154 428.5,-154 428.5,-160 422.5,-166 416.5,-166"/>
<text text-anchor="start" x="317.5" y="-151.2" font-family="Noto Sans CJK SC" font-size="11.00" fill="#172033"> &#160;&#160;&#160;&#160;&#160;&#160;&#160;</text>
<text text-anchor="start" x="342.5" y="-151.2" font-family="Noto Sans CJK SC" font-weight="bold" font-size="11.00" fill="#172033">Translog</text>
<text text-anchor="start" x="290.5" y="-140.2" font-family="Noto Sans CJK SC" font-size="11.00" fill="#172033"> &#160;&#160;&#160;&#160;&#160;&#160;&#160;</text>
<text text-anchor="start" x="315.5" y="-140.2" font-family="Noto Sans CJK SC" font-size="9.00" fill="#475569">提交点前的崩溃恢复</text>
<text text-anchor="start" x="397.5" y="-140.2" font-family="Noto Sans CJK SC" font-size="11.00" fill="#172033"> &#160;&#160;&#160;&#160;&#160;</text>
</g>
<!-- write&#45;&gt;translog -->
<g id="edge4" class="edge">
<title>write&#45;&gt;translog</title>
<path fill="none" stroke="#64748b" stroke-width="1.4" d="M210.24,-109.5C278.2,-109.5 354,-109.5 354,-109.5 354,-109.5 354,-122.65 354,-122.65"/>
<polygon fill="#64748b" stroke="#64748b" stroke-width="1.4" points="351.55,-122.65 354,-129.65 356.45,-122.65 351.55,-122.65"/>
</g>
<!-- buffer -->
<g id="node4" class="node">
<title>buffer</title>
<path fill="#ffffff" stroke="#cbd5e1" stroke-width="1.2" d="M429,-68C429,-68 278,-68 278,-68 272,-68 266,-62 266,-56 266,-56 266,-44 266,-44 266,-38 272,-32 278,-32 278,-32 429,-32 429,-32 435,-32 441,-38 441,-44 441,-44 441,-56 441,-56 441,-62 435,-68 429,-68"/>
<text text-anchor="start" x="297.5" y="-53.2" font-family="Noto Sans CJK SC" font-size="11.00" fill="#172033"> &#160;&#160;&#160;&#160;&#160;&#160;&#160;</text>
<text text-anchor="start" x="322.5" y="-53.2" font-family="Noto Sans CJK SC" font-weight="bold" font-size="11.00" fill="#172033">Indexing Buffer</text>
<text text-anchor="start" x="278" y="-42.2" font-family="Noto Sans CJK SC" font-size="11.00" fill="#172033"> &#160;&#160;&#160;&#160;&#160;&#160;&#160;</text>
<text text-anchor="start" x="303" y="-42.2" font-family="Noto Sans CJK SC" font-size="9.00" fill="#64748b">内存中收集 term / posting</text>
<text text-anchor="start" x="410" y="-42.2" font-family="Noto Sans CJK SC" font-size="11.00" fill="#172033"> &#160;&#160;&#160;&#160;&#160;</text>
</g>
<!-- write&#45;&gt;buffer -->
<g id="edge5" class="edge">
<title>write&#45;&gt;buffer</title>
<path fill="none" stroke="#64748b" stroke-width="1.4" d="M210.44,-91.5C244.2,-91.5 273,-91.5 273,-91.5 273,-91.5 273,-75.32 273,-75.32"/>
<polygon fill="#64748b" stroke="#64748b" stroke-width="1.4" points="275.45,-75.32 273,-68.32 270.55,-75.32 275.45,-75.32"/>
</g>
<!-- commit -->
<g id="node3" class="node">
<title>commit</title>
<path fill="#ffffff" stroke="#cbd5e1" stroke-width="1.2" d="M668,-166C668,-166 509,-166 509,-166 503,-166 497,-160 497,-154 497,-154 497,-142 497,-142 497,-136 503,-130 509,-130 509,-130 668,-130 668,-130 674,-130 680,-136 680,-142 680,-142 680,-154 680,-154 680,-160 674,-166 668,-166"/>
<text text-anchor="start" x="535" y="-151.2" font-family="Noto Sans CJK SC" font-size="11.00" fill="#172033"> &#160;&#160;&#160;&#160;&#160;&#160;&#160;</text>
<text text-anchor="start" x="560" y="-151.2" font-family="Noto Sans CJK SC" font-weight="bold" font-size="11.00" fill="#172033">Flush / Commit</text>
<text text-anchor="start" x="509" y="-140.2" font-family="Noto Sans CJK SC" font-size="11.00" fill="#172033"> &#160;&#160;&#160;&#160;&#160;&#160;&#160;</text>
<text text-anchor="start" x="534" y="-140.2" font-family="Noto Sans CJK SC" font-size="9.00" fill="#64748b">fsync segment，推进提交点</text>
<text text-anchor="start" x="649" y="-140.2" font-family="Noto Sans CJK SC" font-size="11.00" fill="#172033"> &#160;&#160;&#160;&#160;&#160;</text>
</g>
<!-- translog&#45;&gt;commit -->
<g id="edge1" class="edge">
<title>translog&#45;&gt;commit</title>
<path fill="none" stroke="#64748b" stroke-width="1.4" d="M428.5,-148C428.5,-148 489.93,-148 489.93,-148"/>
<polygon fill="#64748b" stroke="#64748b" stroke-width="1.4" points="489.93,-150.45 496.93,-148 489.93,-145.55 489.93,-150.45"/>
<text text-anchor="middle" x="445.21" y="-140.8" font-family="Noto Sans CJK SC" font-size="9.00" fill="#475569">持久化</text>
</g>
<!-- large -->
<g id="node9" class="node">
<title>large</title>
<path fill="#d1fae5" stroke="#34d399" stroke-width="1.6" d="M1355,-69C1355,-69 1214,-69 1214,-69 1208,-69 1202,-63 1202,-57 1202,-57 1202,-45 1202,-45 1202,-39 1208,-33 1214,-33 1214,-33 1355,-33 1355,-33 1361,-33 1367,-39 1367,-45 1367,-45 1367,-57 1367,-57 1367,-63 1361,-69 1355,-69"/>
<text text-anchor="start" x="1232" y="-54.2" font-family="Noto Sans CJK SC" font-size="11.00" fill="#172033"> &#160;&#160;&#160;&#160;&#160;</text>
<text text-anchor="start" x="1251" y="-54.2" font-family="Noto Sans CJK SC" font-weight="bold" font-size="11.00" fill="#172033">更大的 Segment</text>
<text text-anchor="start" x="1214" y="-43.2" font-family="Noto Sans CJK SC" font-size="11.00" fill="#172033"> &#160;&#160;&#160;&#160;&#160;</text>
<text text-anchor="start" x="1233" y="-43.2" font-family="Noto Sans CJK SC" font-size="9.00" fill="#475569">更少查询扇出，更高写放大</text>
<text text-anchor="start" x="1342" y="-43.2" font-family="Noto Sans CJK SC" font-size="11.00" fill="#172033"> &#160;&#160;&#160;</text>
</g>
<!-- commit&#45;&gt;large -->
<g id="edge10" class="edge">
<title>commit&#45;&gt;large</title>
<path fill="none" stroke="#94a3b8" stroke-width="1.4" stroke-dasharray="5,2" d="M680.27,-148C869.4,-148 1285,-148 1285,-148 1285,-148 1285,-76.24 1285,-76.24"/>
<polygon fill="#94a3b8" stroke="#94a3b8" stroke-width="1.4" points="1287.45,-76.24 1285,-69.24 1282.55,-76.24 1287.45,-76.24"/>
<text text-anchor="middle" x="970.01" y="-140.8" font-family="Noto Sans CJK SC" font-size="9.00" fill="#475569">提交当前 segment 集合</text>
</g>
<!-- refresh -->
<g id="node5" class="node">
<title>refresh</title>
<path fill="#dbeafe" stroke="#60a5fa" stroke-width="1.2" d="M647,-68C647,-68 530,-68 530,-68 524,-68 518,-62 518,-56 518,-56 518,-44 518,-44 518,-38 524,-32 530,-32 530,-32 647,-32 647,-32 653,-32 659,-38 659,-44 659,-44 659,-56 659,-56 659,-62 653,-68 647,-68"/>
<text text-anchor="start" x="554.5" y="-53.2" font-family="Noto Sans CJK SC" font-size="11.00" fill="#172033"> &#160;&#160;&#160;&#160;&#160;&#160;&#160;</text>
<text text-anchor="start" x="579.5" y="-53.2" font-family="Noto Sans CJK SC" font-weight="bold" font-size="11.00" fill="#172033">Refresh</text>
<text text-anchor="start" x="530" y="-42.2" font-family="Noto Sans CJK SC" font-size="11.00" fill="#172033"> &#160;&#160;&#160;&#160;&#160;&#160;&#160;</text>
<text text-anchor="start" x="555" y="-42.2" font-family="Noto Sans CJK SC" font-size="9.00" fill="#475569">发布新的搜索视图</text>
<text text-anchor="start" x="628" y="-42.2" font-family="Noto Sans CJK SC" font-size="11.00" fill="#172033"> &#160;&#160;&#160;&#160;&#160;</text>
</g>
<!-- buffer&#45;&gt;refresh -->
<g id="edge2" class="edge">
<title>buffer&#45;&gt;refresh</title>
<path fill="none" stroke="#64748b" stroke-width="1.4" d="M441.01,-50C441.01,-50 510.78,-50 510.78,-50"/>
<polygon fill="#64748b" stroke="#64748b" stroke-width="1.4" points="510.78,-52.45 517.78,-50 510.78,-47.55 510.78,-52.45"/>
</g>
<!-- small -->
<g id="node6" class="node">
<title>small</title>
<path fill="#ede9fe" stroke="#a78bfa" stroke-width="1.2" d="M904,-68C904,-68 748,-68 748,-68 742,-68 736,-62 736,-56 736,-56 736,-44 736,-44 736,-38 742,-32 748,-32 748,-32 904,-32 904,-32 910,-32 916,-38 916,-44 916,-44 916,-56 916,-56 916,-62 910,-68 904,-68"/>
<text text-anchor="start" x="759" y="-53.2" font-family="Noto Sans CJK SC" font-size="11.00" fill="#172033"> &#160;&#160;&#160;&#160;&#160;&#160;&#160;</text>
<text text-anchor="start" x="784" y="-53.2" font-family="Noto Sans CJK SC" font-weight="bold" font-size="11.00" fill="#172033">多个不可变 Segment</text>
<text text-anchor="start" x="748" y="-42.2" font-family="Noto Sans CJK SC" font-size="11.00" fill="#172033"> &#160;&#160;&#160;&#160;&#160;&#160;&#160;</text>
<text text-anchor="start" x="773" y="-42.2" font-family="Noto Sans CJK SC" font-size="9.00" fill="#475569">S₀ · S₁ · S₂ + live&#45;doc bitmap</text>
<text text-anchor="start" x="885" y="-42.2" font-family="Noto Sans CJK SC" font-size="11.00" fill="#172033"> &#160;&#160;&#160;&#160;&#160;</text>
</g>
<!-- refresh&#45;&gt;small -->
<g id="edge3" class="edge">
<title>refresh&#45;&gt;small</title>
<path fill="none" stroke="#64748b" stroke-width="1.4" d="M659.11,-50C659.11,-50 728.81,-50 728.81,-50"/>
<polygon fill="#64748b" stroke="#64748b" stroke-width="1.4" points="728.81,-52.45 735.81,-50 728.81,-47.55 728.81,-52.45"/>
</g>
<!-- query -->
<g id="node7" class="node">
<title>query</title>
<path fill="#d1fae5" stroke="#34d399" stroke-width="1.2" d="M1129,-102C1129,-102 989,-102 989,-102 983,-102 977,-96 977,-90 977,-90 977,-78 977,-78 977,-72 983,-66 989,-66 989,-66 1129,-66 1129,-66 1135,-66 1141,-72 1141,-78 1141,-78 1141,-90 1141,-90 1141,-96 1135,-102 1129,-102"/>
<text text-anchor="start" x="995" y="-87.2" font-family="Noto Sans CJK SC" font-size="11.00" fill="#172033"> &#160;&#160;&#160;&#160;&#160;</text>
<text text-anchor="start" x="1014" y="-87.2" font-family="Noto Sans CJK SC" font-weight="bold" font-size="11.00" fill="#172033">并行查询各 Segment</text>
<text text-anchor="start" x="989" y="-76.2" font-family="Noto Sans CJK SC" font-size="11.00" fill="#172033"> &#160;&#160;&#160;&#160;&#160;</text>
<text text-anchor="start" x="1008" y="-76.2" font-family="Noto Sans CJK SC" font-size="9.00" fill="#475569">过滤删除项，再归并 Top&#45;K</text>
<text text-anchor="start" x="1116" y="-76.2" font-family="Noto Sans CJK SC" font-size="11.00" fill="#172033"> &#160;&#160;&#160;</text>
</g>
<!-- small&#45;&gt;query -->
<g id="edge6" class="edge">
<title>small&#45;&gt;query</title>
<path fill="none" stroke="#64748b" stroke-width="1.4" d="M826,-68.06C826,-71.74 826,-74.5 826,-74.5 826,-74.5 969.85,-74.5 969.85,-74.5"/>
<polygon fill="#64748b" stroke="#64748b" stroke-width="1.4" points="969.85,-76.95 976.85,-74.5 969.85,-72.05 969.85,-76.95"/>
</g>
<!-- merge -->
<g id="node8" class="node">
<title>merge</title>
<path fill="#fce7f3" stroke="#f472b6" stroke-width="1.2" d="M1134,-36C1134,-36 984,-36 984,-36 978,-36 972,-30 972,-24 972,-24 972,-12 972,-12 972,-6 978,0 984,0 984,0 1134,0 1134,0 1140,0 1146,-6 1146,-12 1146,-12 1146,-24 1146,-24 1146,-30 1140,-36 1134,-36"/>
<text text-anchor="start" x="1018.5" y="-21.2" font-family="Noto Sans CJK SC" font-size="11.00" fill="#172033"> &#160;&#160;&#160;&#160;&#160;</text>
<text text-anchor="start" x="1037.5" y="-21.2" font-family="Noto Sans CJK SC" font-weight="bold" font-size="11.00" fill="#172033">后台 Merge</text>
<text text-anchor="start" x="984" y="-10.2" font-family="Noto Sans CJK SC" font-size="11.00" fill="#172033"> &#160;&#160;&#160;&#160;&#160;</text>
<text text-anchor="start" x="1003" y="-10.2" font-family="Noto Sans CJK SC" font-size="9.00" fill="#475569">重写 postings · 回收删除空间</text>
<text text-anchor="start" x="1121" y="-10.2" font-family="Noto Sans CJK SC" font-size="11.00" fill="#172033"> &#160;&#160;&#160;</text>
</g>
<!-- small&#45;&gt;merge -->
<g id="edge7" class="edge">
<title>small&#45;&gt;merge</title>
<path fill="none" stroke="#64748b" stroke-width="1.4" d="M916.05,-46C971.49,-46 1032,-46 1032,-46 1032,-46 1032,-43.21 1032,-43.21"/>
<polygon fill="#64748b" stroke="#64748b" stroke-width="1.4" points="1034.45,-43.21 1032,-36.21 1029.55,-43.21 1034.45,-43.21"/>
</g>
<!-- merge&#45;&gt;large -->
<g id="edge8" class="edge">
<title>merge&#45;&gt;large</title>
<path fill="none" stroke="#64748b" stroke-width="1.4" d="M1146.05,-16.5C1209.72,-16.5 1285,-16.5 1285,-16.5 1285,-16.5 1285,-25.94 1285,-25.94"/>
<polygon fill="#64748b" stroke="#64748b" stroke-width="1.4" points="1282.55,-25.94 1285,-32.94 1287.45,-25.94 1282.55,-25.94"/>
</g>
<!-- large&#45;&gt;query -->
<g id="edge9" class="edge">
<title>large&#45;&gt;query</title>
<path fill="none" stroke="#64748b" stroke-width="1.4" d="M1201.89,-56C1147.77,-56 1087,-56 1087,-56 1087,-56 1087,-58.79 1087,-58.79"/>
<polygon fill="#64748b" stroke="#64748b" stroke-width="1.4" points="1084.55,-58.79 1087,-65.79 1089.45,-58.79 1084.55,-58.79"/>
</g>
</g>
</svg>
