<?xml version="1.0" encoding="UTF-8" standalone="no"?>
<!DOCTYPE svg PUBLIC "-//W3C//DTD SVG 1.1//EN"
 "http://www.w3.org/Graphics/SVG/1.1/DTD/svg11.dtd">
<!-- Generated by graphviz version 2.43.0 (0)
 -->
<!-- Title: InterfaceBoundary Pages: 1 -->
<svg width="1338pt" height="413pt"
 viewBox="0.00 0.00 1338.40 413.40" xmlns="http://www.w3.org/2000/svg" xmlns:xlink="http://www.w3.org/1999/xlink">
<g id="graph0" class="graph" transform="scale(1 1) rotate(0) translate(25.2 388.2)">
<title>InterfaceBoundary</title>
<polygon fill="#f8fafc" stroke="transparent" points="-25.2,25.2 -25.2,-388.2 1313.2,-388.2 1313.2,25.2 -25.2,25.2"/>
<text text-anchor="middle" x="113.5" y="-347" font-family="WenQuanYi Zen Hei" font-size="15.00" fill="#0f172a">纵向管线、横向能力与依赖边界</text>
<g id="clust1" class="cluster">
<title>cluster_process</title>
<path fill="#f8fafc" stroke="#cbd5e1" d="M186,-94C186,-94 543,-94 543,-94 549,-94 555,-100 555,-106 555,-106 555,-167 555,-167 555,-173 549,-179 543,-179 543,-179 186,-179 186,-179 180,-179 174,-173 174,-167 174,-167 174,-106 174,-106 174,-100 180,-94 186,-94"/>
<text text-anchor="middle" x="310" y="-163" font-family="WenQuanYi Zen Hei" font-size="15.00" fill="#0f172a">纵向管线：职责分层，不自动产生接口</text>
</g>
<g id="clust2" class="cluster">
<title>cluster_obs</title>
<path fill="#f8fafc" stroke="#cbd5e1" stroke-dasharray="1,5" d="M659,-8C659,-8 889,-8 889,-8 895,-8 901,-14 901,-20 901,-20 901,-73 901,-73 901,-79 895,-85 889,-85 889,-85 659,-85 659,-85 653,-85 647,-79 647,-73 647,-73 647,-20 647,-20 647,-14 653,-8 659,-8"/>
<text text-anchor="middle" x="774" y="-69" font-family="WenQuanYi Zen Hei" font-size="15.00" fill="#0f172a">横向能力 · 观测类：标准边界已存在</text>
</g>
<g id="clust3" class="cluster">
<title>cluster_boundary</title>
<path fill="#f8fafc" stroke="#fbbf24" stroke-dasharray="5,2" d="M641,-93C641,-93 907,-93 907,-93 913,-93 919,-99 919,-105 919,-105 919,-318 919,-318 919,-324 913,-330 907,-330 907,-330 641,-330 641,-330 635,-330 629,-324 629,-318 629,-318 629,-105 629,-105 629,-99 635,-93 641,-93"/>
<text text-anchor="middle" x="774" y="-314" font-family="WenQuanYi Zen Hei" font-size="15.00" fill="#0f172a">变化 / 验证 / 装饰边界：消费方定义 port</text>
</g>
<g id="clust4" class="cluster">
<title>cluster_external</title>
<path fill="#f8fafc" stroke="#cbd5e1" d="M985,-97C985,-97 1268,-97 1268,-97 1274,-97 1280,-103 1280,-109 1280,-109 1280,-306 1280,-306 1280,-312 1274,-318 1268,-318 1268,-318 985,-318 985,-318 979,-318 973,-312 973,-306 973,-306 973,-109 973,-109 973,-103 979,-97 985,-97"/>
<text text-anchor="middle" x="1089" y="-302" font-family="WenQuanYi Zen Hei" font-size="15.00" fill="#0f172a">外部技术或不可控依赖：adapter</text>
</g>
<!-- ctrl -->
<g id="node1" class="node">
<title>ctrl</title>
<path fill="#ffffff" stroke="#cbd5e1" stroke-width="1.4" d="M302,-138C302,-138 194,-138 194,-138 188,-138 182,-132 182,-126 182,-126 182,-114 182,-114 182,-108 188,-102 194,-102 194,-102 302,-102 302,-102 308,-102 314,-108 314,-114 314,-114 314,-126 314,-126 314,-132 308,-138 302,-138"/>
<text text-anchor="middle" x="248" y="-116.9" font-family="WenQuanYi Zen Hei" font-size="12.00" fill="#172033">Controller / Handler</text>
</g>
<!-- svc -->
<g id="node2" class="node">
<title>svc</title>
<path fill="#dbeafe" stroke="#60a5fa" stroke-width="1.4" d="M535,-146C535,-146 462,-146 462,-146 456,-146 450,-140 450,-134 450,-134 450,-114 450,-114 450,-108 456,-102 462,-102 462,-102 535,-102 535,-102 541,-102 547,-108 547,-114 547,-114 547,-134 547,-134 547,-140 541,-146 535,-146"/>
<text text-anchor="middle" x="498.5" y="-127.4" font-family="WenQuanYi Zen Hei" font-size="12.00" fill="#172033">OrderService</text>
<text text-anchor="middle" x="498.5" y="-114.4" font-family="WenQuanYi Zen Hei" font-size="12.00" fill="#172033">（具体类型）</text>
</g>
<!-- ctrl&#45;&gt;svc -->
<g id="edge1" class="edge">
<title>ctrl&#45;&gt;svc</title>
<path fill="none" stroke="#64748b" stroke-width="1.2" d="M314.29,-121.05C354.2,-121.69 404.66,-122.51 442.52,-123.12"/>
<polygon fill="#64748b" stroke="#64748b" stroke-width="1.2" points="442.88,-125.57 449.92,-123.23 442.96,-120.67 442.88,-125.57"/>
<text text-anchor="middle" x="382" y="-125" font-family="WenQuanYi Zen Hei" font-size="10.00" fill="#475569">具体调用</text>
</g>
<!-- obs -->
<g id="node3" class="node">
<title>obs</title>
<path fill="#f1f5f9" stroke="#94a3b8" stroke-width="1.4" d="M814,-52C814,-52 734,-52 734,-52 728,-52 722,-46 722,-40 722,-40 722,-28 722,-28 722,-22 728,-16 734,-16 734,-16 814,-16 814,-16 820,-16 826,-22 826,-28 826,-28 826,-40 826,-40 826,-46 820,-52 814,-52"/>
<text text-anchor="middle" x="774" y="-30.9" font-family="WenQuanYi Zen Hei" font-size="12.00" fill="#172033">slog / OTel API</text>
</g>
<!-- ctrl&#45;&gt;obs -->
<g id="edge5" class="edge">
<title>ctrl&#45;&gt;obs</title>
<path fill="none" stroke="#94a3b8" stroke-width="1.2" stroke-dasharray="1,5" d="M314.15,-108.84C353.48,-102.14 404.61,-93.49 450,-86 542.41,-70.75 649.78,-53.57 714.5,-43.27"/>
<polygon fill="#94a3b8" stroke="#94a3b8" stroke-width="1.2" points="715.26,-45.63 721.79,-42.12 714.49,-40.79 715.26,-45.63"/>
</g>
<!-- svc&#45;&gt;obs -->
<g id="edge6" class="edge">
<title>svc&#45;&gt;obs</title>
<path fill="none" stroke="#94a3b8" stroke-width="1.2" stroke-dasharray="1,5" d="M547.14,-108.32C593.77,-92.98 664.88,-69.58 714.82,-53.14"/>
<polygon fill="#94a3b8" stroke="#94a3b8" stroke-width="1.2" points="715.84,-55.39 721.73,-50.87 714.31,-50.73 715.84,-55.39"/>
<text text-anchor="middle" x="592" y="-102" font-family="WenQuanYi Zen Hei" font-size="10.00" fill="#475569">直接使用</text>
</g>
<!-- repo -->
<g id="node4" class="node">
<title>repo</title>
<path fill="#fef3c7" stroke="#f59e0b" stroke-width="1.4" d="M817,-297C817,-297 731,-297 731,-297 725,-297 719,-291 719,-285 719,-285 719,-265 719,-265 719,-259 725,-253 731,-253 731,-253 817,-253 817,-253 823,-253 829,-259 829,-265 829,-265 829,-285 829,-285 829,-291 823,-297 817,-297"/>
<text text-anchor="middle" x="774" y="-278.4" font-family="WenQuanYi Zen Hei" font-size="12.00" fill="#172033">OrderRepository</text>
<text text-anchor="middle" x="774" y="-265.4" font-family="WenQuanYi Zen Hei" font-size="12.00" fill="#172033">接口</text>
</g>
<!-- svc&#45;&gt;repo -->
<g id="edge7" class="edge">
<title>svc&#45;&gt;repo</title>
<path fill="none" stroke="#64748b" stroke-width="1.2" d="M518.77,-146.09C542.28,-171.69 584.45,-213.37 629,-237 654.58,-250.57 685.34,-259.54 711.85,-265.34"/>
<polygon fill="#64748b" stroke="#64748b" stroke-width="1.2" points="711.49,-267.77 718.85,-266.82 712.5,-262.97 711.49,-267.77"/>
<text text-anchor="middle" x="592" y="-228" font-family="WenQuanYi Zen Hei" font-size="10.00" fill="#475569">依赖</text>
</g>
<!-- payment -->
<g id="node5" class="node">
<title>payment</title>
<path fill="#fef3c7" stroke="#f59e0b" stroke-width="1.4" d="M820,-221C820,-221 728,-221 728,-221 722,-221 716,-215 716,-209 716,-209 716,-189 716,-189 716,-183 722,-177 728,-177 728,-177 820,-177 820,-177 826,-177 832,-183 832,-189 832,-189 832,-209 832,-209 832,-215 826,-221 820,-221"/>
<text text-anchor="middle" x="774" y="-202.4" font-family="WenQuanYi Zen Hei" font-size="12.00" fill="#172033">PaymentGateway</text>
<text text-anchor="middle" x="774" y="-189.4" font-family="WenQuanYi Zen Hei" font-size="12.00" fill="#172033">接口</text>
</g>
<!-- svc&#45;&gt;payment -->
<g id="edge8" class="edge">
<title>svc&#45;&gt;payment</title>
<path fill="none" stroke="#64748b" stroke-width="1.2" d="M547.1,-137.85C571.55,-144.9 601.83,-153.53 629,-161 655.09,-168.17 683.92,-175.83 708.88,-182.38"/>
<polygon fill="#64748b" stroke="#64748b" stroke-width="1.2" points="708.42,-184.79 715.82,-184.19 709.67,-180.05 708.42,-184.79"/>
<text text-anchor="middle" x="592" y="-159" font-family="WenQuanYi Zen Hei" font-size="10.00" fill="#475569">依赖</text>
</g>
<!-- reviewer -->
<g id="node6" class="node">
<title>reviewer</title>
<path fill="#fef3c7" stroke="#f59e0b" stroke-width="1.4" d="M823,-145C823,-145 725,-145 725,-145 719,-145 713,-139 713,-133 713,-133 713,-113 713,-113 713,-107 719,-101 725,-101 725,-101 823,-101 823,-101 829,-101 835,-107 835,-113 835,-113 835,-133 835,-133 835,-139 829,-145 823,-145"/>
<text text-anchor="middle" x="774" y="-126.4" font-family="WenQuanYi Zen Hei" font-size="12.00" fill="#172033">RiskReviewer</text>
<text text-anchor="middle" x="774" y="-113.4" font-family="WenQuanYi Zen Hei" font-size="12.00" fill="#172033">接口（LLM 能力）</text>
</g>
<!-- svc&#45;&gt;reviewer -->
<g id="edge9" class="edge">
<title>svc&#45;&gt;reviewer</title>
<path fill="none" stroke="#64748b" stroke-width="1.2" d="M547.14,-123.83C590.9,-123.67 656.23,-123.43 705.38,-123.25"/>
<polygon fill="#64748b" stroke="#64748b" stroke-width="1.2" points="705.52,-125.7 712.51,-123.22 705.5,-120.8 705.52,-125.7"/>
<text text-anchor="middle" x="592" y="-126" font-family="WenQuanYi Zen Hei" font-size="10.00" fill="#475569">依赖</text>
</g>
<!-- mysql -->
<g id="node7" class="node">
<title>mysql</title>
<path fill="#ede9fe" stroke="#a78bfa" stroke-width="1.4" d="M1084,-285C1084,-285 1002,-285 1002,-285 996,-285 990,-279 990,-273 990,-273 990,-261 990,-261 990,-255 996,-249 1002,-249 1002,-249 1084,-249 1084,-249 1090,-249 1096,-255 1096,-261 1096,-261 1096,-273 1096,-273 1096,-279 1090,-285 1084,-285"/>
<text text-anchor="middle" x="1043" y="-263.9" font-family="WenQuanYi Zen Hei" font-size="12.00" fill="#172033">MySQL Adapter</text>
</g>
<!-- repo&#45;&gt;mysql -->
<g id="edge10" class="edge">
<title>repo&#45;&gt;mysql</title>
<path fill="none" stroke="#64748b" stroke-width="1.2" stroke-dasharray="5,2" d="M829.03,-273.38C873.58,-272.05 936.69,-270.16 982.64,-268.78"/>
<polygon fill="#64748b" stroke="#64748b" stroke-width="1.2" points="982.94,-271.22 989.87,-268.56 982.8,-266.32 982.94,-271.22"/>
<text text-anchor="middle" x="946" y="-273" font-family="WenQuanYi Zen Hei" font-size="10.00" fill="#475569">实现</text>
</g>
<!-- stripe -->
<g id="node8" class="node">
<title>stripe</title>
<path fill="#ede9fe" stroke="#a78bfa" stroke-width="1.4" d="M1081.5,-217C1081.5,-217 1004.5,-217 1004.5,-217 998.5,-217 992.5,-211 992.5,-205 992.5,-205 992.5,-193 992.5,-193 992.5,-187 998.5,-181 1004.5,-181 1004.5,-181 1081.5,-181 1081.5,-181 1087.5,-181 1093.5,-187 1093.5,-193 1093.5,-193 1093.5,-205 1093.5,-205 1093.5,-211 1087.5,-217 1081.5,-217"/>
<text text-anchor="middle" x="1043" y="-195.9" font-family="WenQuanYi Zen Hei" font-size="12.00" fill="#172033">Stripe Adapter</text>
</g>
<!-- payment&#45;&gt;stripe -->
<g id="edge11" class="edge">
<title>payment&#45;&gt;stripe</title>
<path fill="none" stroke="#64748b" stroke-width="1.2" stroke-dasharray="5,2" d="M832.28,-199C877.51,-199 940.3,-199 985.37,-199"/>
<polygon fill="#64748b" stroke="#64748b" stroke-width="1.2" points="985.45,-201.45 992.45,-199 985.45,-196.55 985.45,-201.45"/>
<text text-anchor="middle" x="946" y="-202" font-family="WenQuanYi Zen Hei" font-size="10.00" fill="#475569">实现</text>
</g>
<!-- deco -->
<g id="node9" class="node">
<title>deco</title>
<path fill="#fce7f3" stroke="#f472b6" stroke-width="1.4" d="M1093,-149C1093,-149 993,-149 993,-149 987,-149 981,-143 981,-137 981,-137 981,-117 981,-117 981,-111 987,-105 993,-105 993,-105 1093,-105 1093,-105 1099,-105 1105,-111 1105,-117 1105,-117 1105,-137 1105,-137 1105,-143 1099,-149 1093,-149"/>
<text text-anchor="middle" x="1043" y="-130.4" font-family="WenQuanYi Zen Hei" font-size="12.00" fill="#172033">装饰器</text>
<text text-anchor="middle" x="1043" y="-117.4" font-family="WenQuanYi Zen Hei" font-size="12.00" fill="#172033">限流 / 重试 / 打点</text>
</g>
<!-- reviewer&#45;&gt;deco -->
<g id="edge12" class="edge">
<title>reviewer&#45;&gt;deco</title>
<path fill="none" stroke="#64748b" stroke-width="1.2" stroke-dasharray="5,2" d="M835.25,-123.9C876.34,-124.52 930.83,-125.33 973.56,-125.97"/>
<polygon fill="#64748b" stroke="#64748b" stroke-width="1.2" points="973.54,-128.42 980.58,-126.08 973.62,-123.53 973.54,-128.42"/>
<text text-anchor="middle" x="946" y="-128" font-family="WenQuanYi Zen Hei" font-size="10.00" fill="#475569">实现</text>
</g>
<!-- llm -->
<g id="node10" class="node">
<title>llm</title>
<path fill="#ede9fe" stroke="#a78bfa" stroke-width="1.4" d="M1260,-159C1260,-159 1187,-159 1187,-159 1181,-159 1175,-153 1175,-147 1175,-147 1175,-127 1175,-127 1175,-121 1181,-115 1187,-115 1187,-115 1260,-115 1260,-115 1266,-115 1272,-121 1272,-127 1272,-127 1272,-147 1272,-147 1272,-153 1266,-159 1260,-159"/>
<text text-anchor="middle" x="1223.5" y="-140.4" font-family="WenQuanYi Zen Hei" font-size="12.00" fill="#172033">LLM Runtime</text>
<text text-anchor="middle" x="1223.5" y="-127.4" font-family="WenQuanYi Zen Hei" font-size="12.00" fill="#172033">（具体类型）</text>
</g>
<!-- deco&#45;&gt;llm -->
<g id="edge13" class="edge">
<title>deco&#45;&gt;llm</title>
<path fill="none" stroke="#64748b" stroke-width="1.2" d="M1105.43,-130.44C1125.64,-131.57 1147.96,-132.82 1167.65,-133.93"/>
<polygon fill="#64748b" stroke="#64748b" stroke-width="1.2" points="1167.65,-136.38 1174.77,-134.33 1167.92,-131.49 1167.65,-136.38"/>
<text text-anchor="middle" x="1140" y="-135" font-family="WenQuanYi Zen Hei" font-size="10.00" fill="#475569">包裹</text>
</g>
<!-- main -->
<g id="node11" class="node">
<title>main</title>
<path fill="#d1fae5" stroke="#34d399" stroke-width="1.4" d="M100,-142C100,-142 12,-142 12,-142 6,-142 0,-136 0,-130 0,-130 0,-110 0,-110 0,-104 6,-98 12,-98 12,-98 100,-98 100,-98 106,-98 112,-104 112,-110 112,-110 112,-130 112,-130 112,-136 106,-142 100,-142"/>
<text text-anchor="middle" x="56" y="-123.4" font-family="WenQuanYi Zen Hei" font-size="12.00" fill="#172033">组合根</text>
<text text-anchor="middle" x="56" y="-110.4" font-family="WenQuanYi Zen Hei" font-size="12.00" fill="#172033">main / 测试入口</text>
</g>
<!-- main&#45;&gt;ctrl -->
<g id="edge2" class="edge">
<title>main&#45;&gt;ctrl</title>
<path fill="none" stroke="#64748b" stroke-width="1.2" d="M112.21,-120C131.72,-120 153.95,-120 174.66,-120"/>
<polygon fill="#64748b" stroke="#64748b" stroke-width="1.2" points="174.91,-122.45 181.91,-120 174.91,-117.55 174.91,-122.45"/>
<text text-anchor="middle" x="147" y="-123" font-family="WenQuanYi Zen Hei" font-size="10.00" fill="#475569">装配</text>
</g>
<!-- main&#45;&gt;svc -->
<g id="edge3" class="edge">
<title>main&#45;&gt;svc</title>
<path fill="none" stroke="#64748b" stroke-width="1.2" d="M112.24,-139.53C131.52,-145.41 153.48,-151.08 174,-154 284.59,-169.74 314.97,-160.28 425,-141 430.77,-139.99 436.76,-138.8 442.72,-137.54"/>
<polygon fill="#64748b" stroke="#64748b" stroke-width="1.2" points="443.37,-139.9 449.69,-136.02 442.33,-135.12 443.37,-139.9"/>
<text text-anchor="middle" x="248" y="-164" font-family="WenQuanYi Zen Hei" font-size="10.00" fill="#475569">注入</text>
</g>
<!-- main&#45;&gt;obs -->
<g id="edge4" class="edge">
<title>main&#45;&gt;obs</title>
<path fill="none" stroke="#64748b" stroke-width="1.2" stroke-dasharray="1,5" d="M112.12,-101.62C131.49,-95.79 153.53,-89.86 174,-86 369.77,-49.04 606.59,-38.29 714.42,-35.21"/>
<polygon fill="#64748b" stroke="#64748b" stroke-width="1.2" points="714.72,-37.65 721.65,-35.01 714.58,-32.75 714.72,-37.65"/>
<text text-anchor="middle" x="382" y="-63" font-family="WenQuanYi Zen Hei" font-size="10.00" fill="#475569">配置 Handler / SDK</text>
</g>
</g>
</svg>
