<?xml version="1.0" encoding="UTF-8" standalone="no"?>
<!DOCTYPE svg PUBLIC "-//W3C//DTD SVG 1.1//EN"
 "http://www.w3.org/Graphics/SVG/1.1/DTD/svg11.dtd">
<!-- Generated by graphviz version 2.43.0 (0)
 -->
<!-- Title: LayerCapabilityMatrix Pages: 1 -->
<svg width="389pt" height="208pt"
 viewBox="0.00 0.00 389.20 208.20" xmlns="http://www.w3.org/2000/svg" xmlns:xlink="http://www.w3.org/1999/xlink">
<g id="graph0" class="graph" transform="scale(1 1) rotate(0) translate(21.6 186.6)">
<title>LayerCapabilityMatrix</title>
<polygon fill="#f8fafc" stroke="transparent" points="-21.6,21.6 -21.6,-186.6 367.6,-186.6 367.6,21.6 -21.6,21.6"/>
<text text-anchor="middle" x="77.5" y="-149" font-family="WenQuanYi Zen Hei" font-size="15.00" fill="#0f172a">纵向分层 × 横向能力</text>
<!-- matrix -->
<g id="node1" class="node">
<title>matrix</title>
<polygon fill="#e2e8f0" stroke="transparent" points="0,-105 0,-140 73,-140 73,-105 0,-105"/>
<polygon fill="none" stroke="#cbd5e1" points="0,-105 0,-140 73,-140 73,-105 0,-105"/>
<polygon fill="#e2e8f0" stroke="transparent" points="73,-105 73,-140 164,-140 164,-105 73,-105"/>
<polygon fill="none" stroke="#cbd5e1" points="73,-105 73,-140 164,-140 164,-105 73,-105"/>
<text text-anchor="start" x="84" y="-120.4" font-family="WenQuanYi Zen Hei" font-weight="bold" font-size="12.00" fill="#172033">log / metrics</text>
<polygon fill="#e2e8f0" stroke="transparent" points="164,-105 164,-140 208,-140 208,-105 164,-105"/>
<polygon fill="none" stroke="#cbd5e1" points="164,-105 164,-140 208,-140 208,-105 164,-105"/>
<text text-anchor="start" x="175" y="-120.4" font-family="WenQuanYi Zen Hei" font-weight="bold" font-size="12.00" fill="#172033">LLM</text>
<polygon fill="#e2e8f0" stroke="transparent" points="208,-105 208,-140 258,-140 258,-105 208,-105"/>
<polygon fill="none" stroke="#cbd5e1" points="208,-105 208,-140 258,-140 258,-105 208,-105"/>
<text text-anchor="start" x="219" y="-120.4" font-family="WenQuanYi Zen Hei" font-weight="bold" font-size="12.00" fill="#172033">clock</text>
<polygon fill="#e2e8f0" stroke="transparent" points="258,-105 258,-140 346,-140 346,-105 258,-105"/>
<polygon fill="none" stroke="#cbd5e1" points="258,-105 258,-140 346,-140 346,-105 258,-105"/>
<text text-anchor="start" x="269" y="-120.4" font-family="WenQuanYi Zen Hei" font-weight="bold" font-size="12.00" fill="#172033">DB / 第三方</text>
<polygon fill="#e2e8f0" stroke="transparent" points="0,-70 0,-105 73,-105 73,-70 0,-70"/>
<polygon fill="none" stroke="#cbd5e1" points="0,-70 0,-105 73,-105 73,-70 0,-70"/>
<text text-anchor="start" x="11" y="-85.4" font-family="WenQuanYi Zen Hei" font-weight="bold" font-size="12.00" fill="#172033">controller</text>
<polygon fill="#f1f5f9" stroke="transparent" points="73,0 73,-105 164,-105 164,0 73,0"/>
<polygon fill="none" stroke="#cbd5e1" points="73,0 73,-105 164,-105 164,0 73,0"/>
<text text-anchor="start" x="100" y="-55.9" font-family="WenQuanYi Zen Hei" font-size="12.00" fill="#172033">直接用</text>
<text text-anchor="start" x="88.5" y="-42.9" font-family="WenQuanYi Zen Hei" font-size="12.00" fill="#172033">slog / OTel</text>
<polygon fill="#ffffff" stroke="transparent" points="164,-70 164,-105 346,-105 346,-70 164,-70"/>
<polygon fill="none" stroke="#cbd5e1" points="164,-70 164,-105 346,-105 346,-70 164,-70"/>
<text text-anchor="start" x="248.5" y="-84.4" font-family="WenQuanYi Zen Hei" font-size="12.00" fill="#94a3b8">—</text>
<polygon fill="#e2e8f0" stroke="transparent" points="0,-35 0,-70 73,-70 73,-35 0,-35"/>
<polygon fill="none" stroke="#cbd5e1" points="0,-35 0,-70 73,-70 73,-35 0,-35"/>
<text text-anchor="start" x="17.5" y="-50.4" font-family="WenQuanYi Zen Hei" font-weight="bold" font-size="12.00" fill="#172033">service</text>
<polygon fill="#fef3c7" stroke="transparent" points="164,-35 164,-70 346,-70 346,-35 164,-35"/>
<polygon fill="none" stroke="#cbd5e1" points="164,-35 164,-70 346,-70 346,-35 164,-35"/>
<text text-anchor="start" x="230.5" y="-49.4" font-family="WenQuanYi Zen Hei" font-size="12.00" fill="#172033">定义 port</text>
<polygon fill="#e2e8f0" stroke="transparent" points="0,0 0,-35 73,-35 73,0 0,0"/>
<polygon fill="none" stroke="#cbd5e1" points="0,0 0,-35 73,-35 73,0 0,0"/>
<text text-anchor="start" x="15.5" y="-15.4" font-family="WenQuanYi Zen Hei" font-weight="bold" font-size="12.00" fill="#172033">adapter</text>
<polygon fill="#ede9fe" stroke="transparent" points="164,0 164,-35 346,-35 346,0 164,0"/>
<polygon fill="none" stroke="#cbd5e1" points="164,0 164,-35 346,-35 346,0 164,0"/>
<text text-anchor="start" x="230.5" y="-14.4" font-family="WenQuanYi Zen Hei" font-size="12.00" fill="#172033">实现 port</text>
</g>
</g>
</svg>
