<?xml version="1.0" encoding="UTF-8" standalone="no"?>
<!DOCTYPE svg PUBLIC "-//W3C//DTD SVG 1.1//EN"
 "http://www.w3.org/Graphics/SVG/1.1/DTD/svg11.dtd">
<!-- Generated by graphviz version 2.43.0 (0)
 -->
<!-- Title: AgentRL Pages: 1 -->
<svg width="766pt" height="327pt"
 viewBox="0.00 0.00 766.40 326.62" xmlns="http://www.w3.org/2000/svg" xmlns:xlink="http://www.w3.org/1999/xlink">
<g id="graph0" class="graph" transform="scale(1 1) rotate(0) translate(25.2 301.42)">
<title>AgentRL</title>
<polygon fill="#f8fafc" stroke="transparent" points="-25.2,25.2 -25.2,-301.42 741.2,-301.42 741.2,25.2 -25.2,25.2"/>
<text text-anchor="middle" x="173.5" y="-260.22" font-family="WenQuanYi Zen Hei" font-size="15.00" fill="#0f172a">后训练的方法选择 · Agent RL 的反馈来自环境交互</text>
<g id="clust1" class="cluster">
<title>cluster_post</title>
<path fill="#f8fafc" stroke="#cbd5e1" d="M138,-12.22C138,-12.22 326,-12.22 326,-12.22 332,-12.22 338,-18.22 338,-24.22 338,-24.22 338,-231.22 338,-231.22 338,-237.22 332,-243.22 326,-243.22 326,-243.22 138,-243.22 138,-243.22 132,-243.22 126,-237.22 126,-231.22 126,-231.22 126,-24.22 126,-24.22 126,-18.22 132,-12.22 138,-12.22"/>
<text text-anchor="middle" x="232" y="-227.22" font-family="WenQuanYi Zen Hei" font-size="15.00" fill="#0f172a">后训练：方法可组合、可迭代</text>
</g>
<!-- base -->
<g id="node1" class="node">
<title>base</title>
<path fill="#dbeafe" stroke="#60a5fa" stroke-width="1.4" d="M73,-133.22C73,-133.22 12,-133.22 12,-133.22 6,-133.22 0,-127.22 0,-121.22 0,-121.22 0,-109.22 0,-109.22 0,-103.22 6,-97.22 12,-97.22 12,-97.22 73,-97.22 73,-97.22 79,-97.22 85,-103.22 85,-109.22 85,-109.22 85,-121.22 85,-121.22 85,-127.22 79,-133.22 73,-133.22"/>
<text text-anchor="middle" x="42.5" y="-112.12" font-family="WenQuanYi Zen Hei" font-size="12.00" fill="#172033">预训练模型</text>
</g>
<!-- sft -->
<g id="node2" class="node">
<title>sft</title>
<path fill="#ffffff" stroke="#cbd5e1" stroke-width="1.4" d="M268,-210.22C268,-210.22 195,-210.22 195,-210.22 189,-210.22 183,-204.22 183,-198.22 183,-198.22 183,-178.22 183,-178.22 183,-172.22 189,-166.22 195,-166.22 195,-166.22 268,-166.22 268,-166.22 274,-166.22 280,-172.22 280,-178.22 280,-178.22 280,-198.22 280,-198.22 280,-204.22 274,-210.22 268,-210.22"/>
<text text-anchor="middle" x="231.5" y="-191.62" font-family="WenQuanYi Zen Hei" font-size="12.00" fill="#172033">SFT</text>
<text text-anchor="middle" x="231.5" y="-178.62" font-family="WenQuanYi Zen Hei" font-size="12.00" fill="#172033">拟合示范选择</text>
</g>
<!-- base&#45;&gt;sft -->
<g id="edge1" class="edge">
<title>base&#45;&gt;sft</title>
<path fill="none" stroke="#64748b" stroke-width="1.2" d="M81.81,-133.26C95.62,-139.53 111.4,-146.44 126,-152.22 142.08,-158.58 159.79,-164.92 175.99,-170.47"/>
<polygon fill="#64748b" stroke="#64748b" stroke-width="1.2" points="175.42,-172.86 182.83,-172.8 176.99,-168.23 175.42,-172.86"/>
</g>
<!-- dpo -->
<g id="node3" class="node">
<title>dpo</title>
<path fill="#ffffff" stroke="#cbd5e1" stroke-width="1.4" d="M268,-137.22C268,-137.22 195,-137.22 195,-137.22 189,-137.22 183,-131.22 183,-125.22 183,-125.22 183,-105.22 183,-105.22 183,-99.22 189,-93.22 195,-93.22 195,-93.22 268,-93.22 268,-93.22 274,-93.22 280,-99.22 280,-105.22 280,-105.22 280,-125.22 280,-125.22 280,-131.22 274,-137.22 268,-137.22"/>
<text text-anchor="middle" x="231.5" y="-118.62" font-family="WenQuanYi Zen Hei" font-size="12.00" fill="#172033">偏好优化</text>
<text text-anchor="middle" x="231.5" y="-105.62" font-family="WenQuanYi Zen Hei" font-size="12.00" fill="#172033">比较候选轨迹</text>
</g>
<!-- base&#45;&gt;dpo -->
<g id="edge2" class="edge">
<title>base&#45;&gt;dpo</title>
<path fill="none" stroke="#64748b" stroke-width="1.2" d="M85,-115.22C111.68,-115.22 146.65,-115.22 175.62,-115.22"/>
<polygon fill="#64748b" stroke="#64748b" stroke-width="1.2" points="175.85,-117.67 182.85,-115.22 175.85,-112.77 175.85,-117.67"/>
</g>
<!-- rl -->
<g id="node4" class="node">
<title>rl</title>
<path fill="#d1fae5" stroke="#34d399" stroke-width="1.4" d="M268,-64.22C268,-64.22 195,-64.22 195,-64.22 189,-64.22 183,-58.22 183,-52.22 183,-52.22 183,-32.22 183,-32.22 183,-26.22 189,-20.22 195,-20.22 195,-20.22 268,-20.22 268,-20.22 274,-20.22 280,-26.22 280,-32.22 280,-32.22 280,-52.22 280,-52.22 280,-58.22 274,-64.22 268,-64.22"/>
<text text-anchor="middle" x="231.5" y="-45.62" font-family="WenQuanYi Zen Hei" font-size="12.00" fill="#172033">Agent RL</text>
<text text-anchor="middle" x="231.5" y="-32.62" font-family="WenQuanYi Zen Hei" font-size="12.00" fill="#172033">优化交互回报</text>
</g>
<!-- base&#45;&gt;rl -->
<g id="edge3" class="edge">
<title>base&#45;&gt;rl</title>
<path fill="none" stroke="#64748b" stroke-width="1.2" d="M83.54,-97.06C96.96,-91.16 112.05,-84.72 126,-79.22 142.13,-72.85 159.86,-66.38 176.06,-60.67"/>
<polygon fill="#64748b" stroke="#64748b" stroke-width="1.2" points="177.1,-62.9 182.9,-58.27 175.48,-58.27 177.1,-62.9"/>
</g>
<!-- env -->
<g id="node5" class="node">
<title>env</title>
<path fill="#ede9fe" stroke="#a78bfa" stroke-width="1.4" d="M539,-76.22C539,-76.22 430,-76.22 430,-76.22 424,-76.22 418,-70.22 418,-64.22 418,-64.22 418,-44.22 418,-44.22 418,-38.22 424,-32.22 430,-32.22 430,-32.22 539,-32.22 539,-32.22 545,-32.22 551,-38.22 551,-44.22 551,-44.22 551,-64.22 551,-64.22 551,-70.22 545,-76.22 539,-76.22"/>
<text text-anchor="middle" x="484.5" y="-57.62" font-family="WenQuanYi Zen Hei" font-size="12.00" fill="#172033">环境</text>
<text text-anchor="middle" x="484.5" y="-44.62" font-family="WenQuanYi Zen Hei" font-size="12.00" fill="#172033">执行工具、产生观察</text>
</g>
<!-- rl&#45;&gt;env -->
<g id="edge4" class="edge">
<title>rl&#45;&gt;env</title>
<path fill="none" stroke="#64748b" stroke-width="1.2" d="M280.01,-44.49C316.82,-46.25 368.46,-48.72 410.51,-50.73"/>
<polygon fill="#64748b" stroke="#64748b" stroke-width="1.2" points="410.6,-53.18 417.71,-51.07 410.84,-48.29 410.6,-53.18"/>
<text text-anchor="middle" x="374" y="-52.22" font-family="WenQuanYi Zen Hei" font-size="10.00" fill="#475569">生成动作</text>
</g>
<!-- env&#45;&gt;rl -->
<g id="edge5" class="edge">
<title>env&#45;&gt;rl</title>
<path fill="none" stroke="#8b5cf6" stroke-width="1.2" d="M417.91,-34.54C409.92,-32.76 401.82,-31.25 394,-30.22 358.63,-25.56 318.64,-28.46 287.3,-32.58"/>
<polygon fill="#8b5cf6" stroke="#8b5cf6" stroke-width="1.2" points="286.95,-30.16 280.35,-33.54 287.61,-35.01 286.95,-30.16"/>
<text text-anchor="middle" x="374" y="-33.22" font-family="WenQuanYi Zen Hei" font-size="10.00" fill="#475569">返回观察</text>
</g>
<!-- score -->
<g id="node6" class="node">
<title>score</title>
<path fill="#ffffff" stroke="#cbd5e1" stroke-width="1.4" d="M704,-76.22C704,-76.22 631,-76.22 631,-76.22 625,-76.22 619,-70.22 619,-64.22 619,-64.22 619,-44.22 619,-44.22 619,-38.22 625,-32.22 631,-32.22 631,-32.22 704,-32.22 704,-32.22 710,-32.22 716,-38.22 716,-44.22 716,-44.22 716,-64.22 716,-64.22 716,-70.22 710,-76.22 704,-76.22"/>
<text text-anchor="middle" x="667.5" y="-57.62" font-family="WenQuanYi Zen Hei" font-size="12.00" fill="#172033">评分器</text>
<text text-anchor="middle" x="667.5" y="-44.62" font-family="WenQuanYi Zen Hei" font-size="12.00" fill="#172033">评价最终产物</text>
</g>
<!-- env&#45;&gt;score -->
<g id="edge6" class="edge">
<title>env&#45;&gt;score</title>
<path fill="none" stroke="#64748b" stroke-width="1.2" d="M551.1,-54.22C571.02,-54.22 592.68,-54.22 611.8,-54.22"/>
<polygon fill="#64748b" stroke="#64748b" stroke-width="1.2" points="611.99,-56.67 618.99,-54.22 611.99,-51.77 611.99,-56.67"/>
<text text-anchor="middle" x="585" y="-57.22" font-family="WenQuanYi Zen Hei" font-size="10.00" fill="#475569">产物</text>
</g>
<!-- score&#45;&gt;rl -->
<g id="edge7" class="edge">
<title>score&#45;&gt;rl</title>
<path fill="none" stroke="#059669" stroke-width="1.2" d="M623.58,-32.12C602.34,-22.4 575.96,-12.1 551,-7.22 459.22,10.74 350.62,-9.98 286.88,-26.33"/>
<polygon fill="#059669" stroke="#059669" stroke-width="1.2" points="286.25,-23.96 280.09,-28.09 287.48,-28.7 286.25,-23.96"/>
<text text-anchor="middle" x="484.5" y="-10.22" font-family="WenQuanYi Zen Hei" font-size="10.00" fill="#475569">奖励 → 参数更新</text>
</g>
</g>
</svg>
