<?xml version="1.0" encoding="UTF-8" standalone="no"?>
<!DOCTYPE svg PUBLIC "-//W3C//DTD SVG 1.1//EN"
 "http://www.w3.org/Graphics/SVG/1.1/DTD/svg11.dtd">
<!-- Generated by graphviz version 2.43.0 (0)
 -->
<!-- Title: AgentRL Pages: 1 -->
<svg width="865pt" height="264pt"
 viewBox="0.00 0.00 865.40 264.40" xmlns="http://www.w3.org/2000/svg" xmlns:xlink="http://www.w3.org/1999/xlink">
<g id="graph0" class="graph" transform="scale(1 1) rotate(0) translate(25.2 239.2)">
<title>AgentRL</title>
<polygon fill="#f8fafc" stroke="transparent" points="-25.2,25.2 -25.2,-239.2 840.2,-239.2 840.2,25.2 -25.2,25.2"/>
<text text-anchor="middle" x="166" y="-198" font-family="WenQuanYi Zen Hei" font-size="15.00" fill="#0f172a">一条轨迹，两条回传通道：业务观察与训练评分</text>
<g id="clust1" class="cluster">
<title>cluster_runtime</title>
<path fill="#f8fafc" stroke="#c4b5fd" d="M20,-55C20,-55 376,-55 376,-55 382,-55 388,-61 388,-67 388,-67 388,-169 388,-169 388,-175 382,-181 376,-181 376,-181 20,-181 20,-181 14,-181 8,-175 8,-169 8,-169 8,-67 8,-67 8,-61 14,-55 20,-55"/>
<text text-anchor="middle" x="46.5" y="-165" font-family="WenQuanYi Zen Hei" font-size="15.00" fill="#0f172a">任务执行</text>
</g>
<!-- policy -->
<g id="node1" class="node">
<title>policy</title>
<path fill="#dbeafe" stroke="#60a5fa" stroke-width="1.4" d="M350,-44C350,-44 277,-44 277,-44 271,-44 265,-38 265,-32 265,-32 265,-12 265,-12 265,-6 271,0 277,0 277,0 350,0 350,0 356,0 362,-6 362,-12 362,-12 362,-32 362,-32 362,-38 356,-44 350,-44"/>
<text text-anchor="middle" x="313.5" y="-25.4" font-family="WenQuanYi Zen Hei" font-size="12.00" fill="#172033">策略 LLM</text>
<text text-anchor="middle" x="313.5" y="-12.4" font-family="WenQuanYi Zen Hei" font-size="12.00" fill="#172033">生成工具调用</text>
</g>
<!-- harness -->
<g id="node2" class="node">
<title>harness</title>
<path fill="#ffffff" stroke="#cbd5e1" stroke-width="1.4" d="M113,-110C113,-110 28,-110 28,-110 22,-110 16,-104 16,-98 16,-98 16,-78 16,-78 16,-72 22,-66 28,-66 28,-66 113,-66 113,-66 119,-66 125,-72 125,-78 125,-78 125,-98 125,-98 125,-104 119,-110 113,-110"/>
<text text-anchor="middle" x="70.5" y="-91.4" font-family="WenQuanYi Zen Hei" font-size="12.00" fill="#172033">可信 harness</text>
<text text-anchor="middle" x="70.5" y="-78.4" font-family="WenQuanYi Zen Hei" font-size="12.00" fill="#172033">组织历史与调用</text>
</g>
<!-- policy&#45;&gt;harness -->
<g id="edge3" class="edge">
<title>policy&#45;&gt;harness</title>
<path fill="none" stroke="#64748b" stroke-width="1.2" d="M265,-35.01C226.91,-45.44 173.21,-60.15 132.04,-71.42"/>
<polygon fill="#64748b" stroke="#64748b" stroke-width="1.2" points="131.39,-69.06 125.29,-73.27 132.68,-73.78 131.39,-69.06"/>
<text text-anchor="middle" x="186" y="-69" font-family="WenQuanYi Zen Hei" font-size="10.00" fill="#475569">动作</text>
</g>
<!-- data -->
<g id="node5" class="node">
<title>data</title>
<path fill="#d1fae5" stroke="#34d399" stroke-width="1.4" d="M803,-73C803,-73 694,-73 694,-73 688,-73 682,-67 682,-61 682,-61 682,-41 682,-41 682,-35 688,-29 694,-29 694,-29 803,-29 803,-29 809,-29 815,-35 815,-41 815,-41 815,-61 815,-61 815,-67 809,-73 803,-73"/>
<text text-anchor="middle" x="748.5" y="-54.4" font-family="WenQuanYi Zen Hei" font-size="12.00" fill="#172033">训练记录</text>
<text text-anchor="middle" x="748.5" y="-41.4" font-family="WenQuanYi Zen Hei" font-size="12.00" fill="#172033">动作概率、mask、R</text>
</g>
<!-- policy&#45;&gt;data -->
<g id="edge6" class="edge">
<title>policy&#45;&gt;data</title>
<path fill="none" stroke="#64748b" stroke-width="1.2" stroke-dasharray="5,2" d="M362.08,-25.19C437.69,-30.25 585.81,-40.17 674.79,-46.13"/>
<polygon fill="#64748b" stroke="#64748b" stroke-width="1.2" points="674.74,-48.58 681.89,-46.61 675.07,-43.69 674.74,-48.58"/>
<text text-anchor="middle" x="549" y="-43" font-family="WenQuanYi Zen Hei" font-size="10.00" fill="#475569">生成 token / logprob</text>
</g>
<!-- harness&#45;&gt;policy -->
<g id="edge4" class="edge">
<title>harness&#45;&gt;policy</title>
<path fill="none" stroke="#8b5cf6" stroke-width="1.2" d="M93.01,-65.82C107.45,-52.5 127.69,-36.7 149,-29 183.65,-16.48 225.16,-14.85 257.68,-16.29"/>
<polygon fill="#8b5cf6" stroke="#8b5cf6" stroke-width="1.2" points="257.78,-18.74 264.9,-16.66 258.03,-13.85 257.78,-18.74"/>
<text text-anchor="middle" x="186" y="-32" font-family="WenQuanYi Zen Hei" font-size="10.00" fill="#475569">历史 + 观察</text>
</g>
<!-- workspace -->
<g id="node3" class="node">
<title>workspace</title>
<path fill="#ede9fe" stroke="#a78bfa" stroke-width="1.4" d="M368,-117C368,-117 259,-117 259,-117 253,-117 247,-111 247,-105 247,-105 247,-85 247,-85 247,-79 253,-73 259,-73 259,-73 368,-73 368,-73 374,-73 380,-79 380,-85 380,-85 380,-105 380,-105 380,-111 374,-117 368,-117"/>
<text text-anchor="middle" x="313.5" y="-98.4" font-family="WenQuanYi Zen Hei" font-size="12.00" fill="#172033">工具环境</text>
<text text-anchor="middle" x="313.5" y="-85.4" font-family="WenQuanYi Zen Hei" font-size="12.00" fill="#172033">可写仓库、公开测试</text>
</g>
<!-- harness&#45;&gt;workspace -->
<g id="edge1" class="edge">
<title>harness&#45;&gt;workspace</title>
<path fill="none" stroke="#64748b" stroke-width="1.2" d="M125.15,-88.74C154.13,-89.22 190.53,-89.95 223,-91 228.36,-91.17 233.89,-91.37 239.46,-91.59"/>
<polygon fill="#64748b" stroke="#64748b" stroke-width="1.2" points="239.43,-94.04 246.52,-91.87 239.63,-89.14 239.43,-94.04"/>
<text text-anchor="middle" x="186" y="-94" font-family="WenQuanYi Zen Hei" font-size="10.00" fill="#475569">read / edit / test</text>
</g>
<!-- workspace&#45;&gt;harness -->
<g id="edge2" class="edge">
<title>workspace&#45;&gt;harness</title>
<path fill="none" stroke="#64748b" stroke-width="1.2" d="M246.76,-103.31C216.87,-105.88 181.1,-107.28 149,-104 143.52,-103.44 137.86,-102.66 132.21,-101.75"/>
<polygon fill="#64748b" stroke="#64748b" stroke-width="1.2" points="132.37,-99.3 125.06,-100.53 131.55,-104.13 132.37,-99.3"/>
<text text-anchor="middle" x="186" y="-108" font-family="WenQuanYi Zen Hei" font-size="10.00" fill="#475569">工具观察</text>
</g>
<!-- verifier -->
<g id="node4" class="node">
<title>verifier</title>
<path fill="#fef3c7" stroke="#fbbf24" stroke-width="1.4" d="M579.5,-114C579.5,-114 518.5,-114 518.5,-114 512.5,-114 506.5,-108 506.5,-102 506.5,-102 506.5,-82 506.5,-82 506.5,-76 512.5,-70 518.5,-70 518.5,-70 579.5,-70 579.5,-70 585.5,-70 591.5,-76 591.5,-82 591.5,-82 591.5,-102 591.5,-102 591.5,-108 585.5,-114 579.5,-114"/>
<text text-anchor="middle" x="549" y="-95.4" font-family="WenQuanYi Zen Hei" font-size="12.00" fill="#172033">独立验证器</text>
<text text-anchor="middle" x="549" y="-82.4" font-family="WenQuanYi Zen Hei" font-size="12.00" fill="#172033">私有检查</text>
</g>
<!-- workspace&#45;&gt;verifier -->
<g id="edge5" class="edge">
<title>workspace&#45;&gt;verifier</title>
<path fill="none" stroke="#64748b" stroke-width="1.2" d="M380.16,-94.16C417.94,-93.67 464.61,-93.07 499.14,-92.63"/>
<polygon fill="#64748b" stroke="#64748b" stroke-width="1.2" points="499.35,-95.08 506.32,-92.54 499.29,-90.18 499.35,-95.08"/>
<text text-anchor="middle" x="442" y="-96" font-family="WenQuanYi Zen Hei" font-size="10.00" fill="#475569">finish 后提交产物</text>
</g>
<!-- verifier&#45;&gt;data -->
<g id="edge7" class="edge">
<title>verifier&#45;&gt;data</title>
<path fill="none" stroke="#059669" stroke-width="1.2" d="M591.88,-83.3C616,-78.3 646.97,-71.87 674.93,-66.07"/>
<polygon fill="#059669" stroke="#059669" stroke-width="1.2" points="675.61,-68.43 681.97,-64.6 674.61,-63.63 675.61,-68.43"/>
<text text-anchor="middle" x="638" y="-80" font-family="WenQuanYi Zen Hei" font-size="10.00" fill="#475569">终局评分</text>
</g>
</g>
</svg>
