<?xml version="1.0" encoding="UTF-8" standalone="no"?>
<!DOCTYPE svg PUBLIC "-//W3C//DTD SVG 1.1//EN"
 "http://www.w3.org/Graphics/SVG/1.1/DTD/svg11.dtd">
<!-- Generated by graphviz version 2.43.0 (0)
 -->
<!-- Title: AgentRL Pages: 1 -->
<svg width="636pt" height="487pt"
 viewBox="0.00 0.00 636.40 487.40" xmlns="http://www.w3.org/2000/svg" xmlns:xlink="http://www.w3.org/1999/xlink">
<g id="graph0" class="graph" transform="scale(1 1) rotate(0) translate(25.2 462.2)">
<title>AgentRL</title>
<polygon fill="#f8fafc" stroke="transparent" points="-25.2,25.2 -25.2,-462.2 611.2,-462.2 611.2,25.2 -25.2,25.2"/>
<text text-anchor="middle" x="203.5" y="-421" font-family="WenQuanYi Zen Hei" font-size="15.00" fill="#0f172a">GPU / CPU 协同：服务请求、轨迹数据与权重发布分别管理</text>
<g id="clust1" class="cluster">
<title>cluster_control</title>
<path fill="#f8fafc" stroke="#cbd5e1" d="M252,-112C252,-112 369,-112 369,-112 375,-112 381,-118 381,-124 381,-124 381,-258 381,-258 381,-264 375,-270 369,-270 369,-270 252,-270 252,-270 246,-270 240,-264 240,-258 240,-258 240,-124 240,-124 240,-118 246,-112 252,-112"/>
<text text-anchor="middle" x="308.5" y="-254" font-family="WenQuanYi Zen Hei" font-size="15.00" fill="#0f172a">可信控制与数据层</text>
</g>
<g id="clust2" class="cluster">
<title>cluster_cpu</title>
<path fill="#f8fafc" stroke="#c4b5fd" d="M32,-278C32,-278 355,-278 355,-278 361,-278 367,-284 367,-290 367,-290 367,-392 367,-392 367,-398 361,-404 355,-404 355,-404 32,-404 32,-404 26,-404 20,-398 20,-392 20,-392 20,-290 20,-290 20,-284 26,-278 32,-278"/>
<text text-anchor="middle" x="66.5" y="-388" font-family="WenQuanYi Zen Hei" font-size="15.00" fill="#0f172a">CPU 环境池</text>
</g>
<g id="clust3" class="cluster">
<title>cluster_gpu</title>
<path fill="#f8fafc" stroke="#93c5fd" d="M20,-8C20,-8 373,-8 373,-8 379,-8 385,-14 385,-20 385,-20 385,-81 385,-81 385,-87 379,-93 373,-93 373,-93 20,-93 20,-93 14,-93 8,-87 8,-81 8,-81 8,-20 8,-20 8,-14 14,-8 20,-8"/>
<text text-anchor="middle" x="55" y="-77" font-family="WenQuanYi Zen Hei" font-size="15.00" fill="#0f172a">GPU 计算层</text>
</g>
<!-- scheduler -->
<g id="node1" class="node">
<title>scheduler</title>
<path fill="#ffffff" stroke="#cbd5e1" stroke-width="1.4" d="M359,-237C359,-237 262,-237 262,-237 256,-237 250,-231 250,-225 250,-225 250,-205 250,-205 250,-199 256,-193 262,-193 262,-193 359,-193 359,-193 365,-193 371,-199 371,-205 371,-205 371,-225 371,-225 371,-231 365,-237 359,-237"/>
<text text-anchor="middle" x="310.5" y="-218.4" font-family="WenQuanYi Zen Hei" font-size="12.00" fill="#172033">协调器</text>
<text text-anchor="middle" x="310.5" y="-205.4" font-family="WenQuanYi Zen Hei" font-size="12.00" fill="#172033">任务、租约、版本</text>
</g>
<!-- harness -->
<g id="node3" class="node">
<title>harness</title>
<path fill="#ffffff" stroke="#cbd5e1" stroke-width="1.4" d="M113,-330C113,-330 40,-330 40,-330 34,-330 28,-324 28,-318 28,-318 28,-298 28,-298 28,-292 34,-286 40,-286 40,-286 113,-286 113,-286 119,-286 125,-292 125,-298 125,-298 125,-318 125,-318 125,-324 119,-330 113,-330"/>
<text text-anchor="middle" x="76.5" y="-311.4" font-family="WenQuanYi Zen Hei" font-size="12.00" fill="#172033">可信 harness</text>
<text text-anchor="middle" x="76.5" y="-298.4" font-family="WenQuanYi Zen Hei" font-size="12.00" fill="#172033">维护交互状态</text>
</g>
<!-- scheduler&#45;&gt;harness -->
<g id="edge4" class="edge">
<title>scheduler&#45;&gt;harness</title>
<path fill="none" stroke="#64748b" stroke-width="1.2" d="M254.31,-237.12C217.24,-251.98 168.62,-271.47 131.75,-286.25"/>
<polygon fill="#64748b" stroke="#64748b" stroke-width="1.2" points="130.59,-284.08 125.01,-288.96 132.42,-288.63 130.59,-284.08"/>
<text text-anchor="middle" x="190.5" y="-275" font-family="WenQuanYi Zen Hei" font-size="10.00" fill="#475569">任务</text>
</g>
<!-- collector -->
<g id="node2" class="node">
<title>collector</title>
<path fill="#d1fae5" stroke="#34d399" stroke-width="1.4" d="M361,-164C361,-164 260,-164 260,-164 254,-164 248,-158 248,-152 248,-152 248,-132 248,-132 248,-126 254,-120 260,-120 260,-120 361,-120 361,-120 367,-120 373,-126 373,-132 373,-132 373,-152 373,-152 373,-158 367,-164 361,-164"/>
<text text-anchor="middle" x="310.5" y="-145.4" font-family="WenQuanYi Zen Hei" font-size="12.00" fill="#172033">轨迹组装</text>
<text text-anchor="middle" x="310.5" y="-132.4" font-family="WenQuanYi Zen Hei" font-size="12.00" fill="#172033">校验、mask、奖励</text>
</g>
<!-- trainer -->
<g id="node6" class="node">
<title>trainer</title>
<path fill="#dbeafe" stroke="#60a5fa" stroke-width="1.4" d="M125,-60C125,-60 28,-60 28,-60 22,-60 16,-54 16,-48 16,-48 16,-28 16,-28 16,-22 22,-16 28,-16 28,-16 125,-16 125,-16 131,-16 137,-22 137,-28 137,-28 137,-48 137,-48 137,-54 131,-60 125,-60"/>
<text text-anchor="middle" x="76.5" y="-41.4" font-family="WenQuanYi Zen Hei" font-size="12.00" fill="#172033">trainer</text>
<text text-anchor="middle" x="76.5" y="-28.4" font-family="WenQuanYi Zen Hei" font-size="12.00" fill="#172033">策略更新、优化器</text>
</g>
<!-- collector&#45;&gt;trainer -->
<g id="edge11" class="edge">
<title>collector&#45;&gt;trainer</title>
<path fill="none" stroke="#059669" stroke-width="2" d="M247.95,-131.08C220.44,-124.8 188.17,-115.41 161,-102 141.31,-92.28 121.69,-77.57 106.43,-64.71"/>
<polygon fill="#059669" stroke="#059669" stroke-width="2" points="107.92,-62.76 101.01,-60.06 104.73,-66.48 107.92,-62.76"/>
<text text-anchor="middle" x="190.5" y="-125" font-family="WenQuanYi Zen Hei" font-size="10.00" fill="#475569">训练 batch</text>
</g>
<!-- harness&#45;&gt;collector -->
<g id="edge9" class="edge">
<title>harness&#45;&gt;collector</title>
<path fill="none" stroke="#64748b" stroke-width="1.2" stroke-dasharray="5,2" d="M101.42,-285.93C117.83,-271.09 140.28,-251.33 161,-235 177.9,-221.68 221.69,-190.3 240,-179 246.32,-175.1 253.09,-171.18 259.84,-167.44"/>
<polygon fill="#64748b" stroke="#64748b" stroke-width="1.2" points="261.05,-169.57 266.01,-164.06 258.7,-165.27 261.05,-169.57"/>
<text text-anchor="middle" x="190.5" y="-238" font-family="WenQuanYi Zen Hei" font-size="10.00" fill="#475569">调用与观察</text>
</g>
<!-- sandbox -->
<g id="node4" class="node">
<title>sandbox</title>
<path fill="#ede9fe" stroke="#a78bfa" stroke-width="1.4" d="M347,-337C347,-337 274,-337 274,-337 268,-337 262,-331 262,-325 262,-325 262,-305 262,-305 262,-299 268,-293 274,-293 274,-293 347,-293 347,-293 353,-293 359,-299 359,-305 359,-305 359,-325 359,-325 359,-331 353,-337 347,-337"/>
<text text-anchor="middle" x="310.5" y="-318.4" font-family="WenQuanYi Zen Hei" font-size="12.00" fill="#172033">工具沙箱</text>
<text text-anchor="middle" x="310.5" y="-305.4" font-family="WenQuanYi Zen Hei" font-size="12.00" fill="#172033">独立工作副本</text>
</g>
<!-- harness&#45;&gt;sandbox -->
<g id="edge1" class="edge">
<title>harness&#45;&gt;sandbox</title>
<path fill="none" stroke="#64748b" stroke-width="1.2" d="M125.01,-309.43C162.57,-310.57 215.07,-312.15 254.46,-313.34"/>
<polygon fill="#64748b" stroke="#64748b" stroke-width="1.2" points="254.59,-315.79 261.66,-313.56 254.73,-310.9 254.59,-315.79"/>
<text text-anchor="middle" x="190.5" y="-315" font-family="WenQuanYi Zen Hei" font-size="10.00" fill="#475569">调用</text>
</g>
<!-- rollout -->
<g id="node5" class="node">
<title>rollout</title>
<path fill="#dbeafe" stroke="#60a5fa" stroke-width="1.4" d="M365,-60C365,-60 256,-60 256,-60 250,-60 244,-54 244,-48 244,-48 244,-28 244,-28 244,-22 250,-16 256,-16 256,-16 365,-16 365,-16 371,-16 377,-22 377,-28 377,-28 377,-48 377,-48 377,-54 371,-60 365,-60"/>
<text text-anchor="middle" x="310.5" y="-41.4" font-family="WenQuanYi Zen Hei" font-size="12.00" fill="#172033">rollout 推理</text>
<text text-anchor="middle" x="310.5" y="-28.4" font-family="WenQuanYi Zen Hei" font-size="12.00" fill="#172033">版本化权重、批处理</text>
</g>
<!-- harness&#45;&gt;rollout -->
<g id="edge5" class="edge">
<title>harness&#45;&gt;rollout</title>
<path fill="none" stroke="#64748b" stroke-width="1.2" d="M88.14,-285.98C102.12,-258.63 128.71,-211.6 161,-179 183.12,-156.67 198.51,-162.94 220,-140 232.25,-126.93 229,-119.14 240,-105 251.08,-90.77 265.13,-76.66 277.69,-65.09"/>
<polygon fill="#64748b" stroke="#64748b" stroke-width="1.2" points="279.43,-66.81 282.97,-60.29 276.14,-63.18 279.43,-66.81"/>
<text text-anchor="middle" x="190.5" y="-182" font-family="WenQuanYi Zen Hei" font-size="10.00" fill="#475569">生成请求</text>
</g>
<!-- sandbox&#45;&gt;harness -->
<g id="edge2" class="edge">
<title>sandbox&#45;&gt;harness</title>
<path fill="none" stroke="#64748b" stroke-width="1.2" d="M261.94,-323.49C232.77,-327.55 194.67,-330.78 161,-327 151.61,-325.94 141.73,-324.24 132.19,-322.28"/>
<polygon fill="#64748b" stroke="#64748b" stroke-width="1.2" points="132.67,-319.88 125.31,-320.81 131.65,-324.67 132.67,-319.88"/>
<text text-anchor="middle" x="190.5" y="-331" font-family="WenQuanYi Zen Hei" font-size="10.00" fill="#475569">观察</text>
</g>
<!-- verifier -->
<g id="node7" class="node">
<title>verifier</title>
<path fill="#fef3c7" stroke="#fbbf24" stroke-width="1.4" d="M574,-250C574,-250 477,-250 477,-250 471,-250 465,-244 465,-238 465,-238 465,-218 465,-218 465,-212 471,-206 477,-206 477,-206 574,-206 574,-206 580,-206 586,-212 586,-218 586,-218 586,-238 586,-238 586,-244 580,-250 574,-250"/>
<text text-anchor="middle" x="525.5" y="-231.4" font-family="WenQuanYi Zen Hei" font-size="12.00" fill="#172033">独立评分</text>
<text text-anchor="middle" x="525.5" y="-218.4" font-family="WenQuanYi Zen Hei" font-size="12.00" fill="#172033">隔离执行候选程序</text>
</g>
<!-- sandbox&#45;&gt;verifier -->
<g id="edge7" class="edge">
<title>sandbox&#45;&gt;verifier</title>
<path fill="none" stroke="#64748b" stroke-width="1.2" d="M359.04,-295.58C389.96,-282.95 430.56,-266.37 463.81,-252.79"/>
<polygon fill="#64748b" stroke="#64748b" stroke-width="1.2" points="464.8,-255.03 470.35,-250.12 462.95,-250.5 464.8,-255.03"/>
<text text-anchor="middle" x="421" y="-279" font-family="WenQuanYi Zen Hei" font-size="10.00" fill="#475569">终局产物</text>
</g>
<!-- rollout&#45;&gt;collector -->
<g id="edge10" class="edge">
<title>rollout&#45;&gt;collector</title>
<path fill="none" stroke="#64748b" stroke-width="1.2" stroke-dasharray="5,2" d="M310.5,-60.06C310.5,-75.36 310.5,-95.92 310.5,-112.61"/>
<polygon fill="#64748b" stroke="#64748b" stroke-width="1.2" points="308.05,-112.98 310.5,-119.98 312.95,-112.98 308.05,-112.98"/>
<text text-anchor="middle" x="302" y="-87.5" font-family="WenQuanYi Zen Hei" font-size="10.00" fill="#475569">token / logprob / 版本</text>
</g>
<!-- rollout&#45;&gt;harness -->
<g id="edge6" class="edge">
<title>rollout&#45;&gt;harness</title>
<path fill="none" stroke="#64748b" stroke-width="1.2" d="M243.86,-54.63C210.09,-64.32 173.44,-76.97 161,-89 107,-141.23 87.46,-232.03 80.76,-278.6"/>
<polygon fill="#64748b" stroke="#64748b" stroke-width="1.2" points="78.31,-278.41 79.79,-285.68 83.17,-279.08 78.31,-278.41"/>
<text text-anchor="middle" x="190.5" y="-92" font-family="WenQuanYi Zen Hei" font-size="10.00" fill="#475569">生成结果</text>
</g>
<!-- trainer&#45;&gt;rollout -->
<g id="edge3" class="edge">
<title>trainer&#45;&gt;rollout</title>
<path fill="none" stroke="#2563eb" stroke-width="2" d="M137.25,-38C167.58,-38 204.68,-38 236.67,-38"/>
<polygon fill="#2563eb" stroke="#2563eb" stroke-width="2" points="236.83,-40.45 243.83,-38 236.83,-35.55 236.83,-40.45"/>
<text text-anchor="middle" x="190.5" y="-41" font-family="WenQuanYi Zen Hei" font-size="10.00" fill="#475569">完整权重发布</text>
</g>
<!-- verifier&#45;&gt;collector -->
<g id="edge8" class="edge">
<title>verifier&#45;&gt;collector</title>
<path fill="none" stroke="#059669" stroke-width="1.2" d="M469.7,-205.87C440.09,-193.92 403.46,-179.13 372.9,-166.79"/>
<polygon fill="#059669" stroke="#059669" stroke-width="1.2" points="373.48,-164.38 366.08,-164.04 371.65,-168.93 373.48,-164.38"/>
<text text-anchor="middle" x="421" y="-195" font-family="WenQuanYi Zen Hei" font-size="10.00" fill="#475569">奖励</text>
</g>
</g>
</svg>
