<?xml version="1.0" encoding="UTF-8" standalone="no"?>
<!DOCTYPE svg PUBLIC "-//W3C//DTD SVG 1.1//EN"
 "http://www.w3.org/Graphics/SVG/1.1/DTD/svg11.dtd">
<!-- Generated by graphviz version 2.43.0 (0)
 -->
<!-- Title: BlockMaxPruning Pages: 1 -->
<svg width="986pt" height="304pt"
 viewBox="0.00 0.00 986.40 304.40" xmlns="http://www.w3.org/2000/svg" xmlns:xlink="http://www.w3.org/1999/xlink">
<g id="graph0" class="graph" transform="scale(1 1) rotate(0) translate(25.2 279.2)">
<title>BlockMaxPruning</title>
<polygon fill="#f8fafc" stroke="transparent" points="-25.2,25.2 -25.2,-279.2 961.2,-279.2 961.2,25.2 -25.2,25.2"/>
<text text-anchor="middle" x="141.5" y="-239.6" font-family="Noto Sans CJK SC" font-size="13.00" fill="#334155">Block&#45;Max：局部上界低于竞争阈值时整块跳过</text>
<g id="clust1" class="cluster">
<title>cluster_low</title>
<path fill="#eff6ff" stroke="#bfdbfe" d="M20,-62C20,-62 334,-62 334,-62 340,-62 346,-68 346,-74 346,-74 346,-212 346,-212 346,-218 340,-224 334,-224 334,-224 20,-224 20,-224 14,-224 8,-218 8,-212 8,-212 8,-74 8,-74 8,-68 14,-62 20,-62"/>
<text text-anchor="middle" x="55" y="-209.6" font-family="Noto Sans CJK SC" font-size="13.00" fill="#334155">docID 0..127</text>
</g>
<g id="clust3" class="cluster">
<title>cluster_high</title>
<path fill="#f5f3ff" stroke="#c4b5fd" d="M602,-62C602,-62 916,-62 916,-62 922,-62 928,-68 928,-74 928,-74 928,-212 928,-212 928,-218 922,-224 916,-224 916,-224 602,-224 602,-224 596,-224 590,-218 590,-212 590,-212 590,-74 590,-74 590,-68 596,-62 602,-62"/>
<text text-anchor="middle" x="644.5" y="-209.6" font-family="Noto Sans CJK SC" font-size="13.00" fill="#334155">docID 128..255</text>
</g>
<!-- threshold -->
<g id="node1" class="node">
<title>threshold</title>
<polygon fill="#fef3c7" stroke="#f59e0b" stroke-width="1.6" points="569.5,-188 360.5,-188 360.5,-152 575.5,-152 575.5,-182 569.5,-188"/>
<polyline fill="none" stroke="#f59e0b" stroke-width="1.6" points="569.5,-188 569.5,-182 "/>
<polyline fill="none" stroke="#f59e0b" stroke-width="1.6" points="575.5,-182 569.5,-182 "/>
<text text-anchor="start" x="426.5" y="-173.5" font-family="Noto Sans CJK SC" font-size="10.00" fill="#172033"> &#160;&#160;&#160;&#160;&#160;</text>
<text text-anchor="start" x="440.5" y="-173.5" font-family="Noto Sans CJK SC" font-weight="bold" font-size="10.00" fill="#172033">Top&#45;K 当前阈值</text>
<text text-anchor="start" x="371.5" y="-162.7" font-family="Noto Sans CJK SC" font-size="10.00" fill="#172033"> &#160;&#160;&#160;&#160;&#160;</text>
<text text-anchor="start" x="385.5" y="-162.7" font-family="monospace" font-size="11.00" fill="#172033">minCompetitiveScore = 3.0</text>
<text text-anchor="start" x="554.5" y="-162.7" font-family="Noto Sans CJK SC" font-size="10.00" fill="#172033"> &#160;&#160;&#160;</text>
</g>
<!-- low_sum -->
<g id="node5" class="node">
<title>low_sum</title>
<path fill="#fee2e2" stroke="#f87171" stroke-width="1.2" d="M269,-112C269,-112 187,-112 187,-112 181,-112 175,-106 175,-100 175,-100 175,-88 175,-88 175,-82 181,-76 187,-76 187,-76 269,-76 269,-76 275,-76 281,-82 281,-88 281,-88 281,-100 281,-100 281,-106 275,-112 269,-112"/>
<text text-anchor="start" x="186" y="-97" font-family="Noto Sans CJK SC" font-size="10.00" fill="#172033"> &#160;&#160;&#160;&#160;&#160;&#160;&#160;</text>
<text text-anchor="start" x="205" y="-97" font-family="Noto Sans CJK SC" font-weight="bold" font-size="10.00" fill="#172033">合计上界 = 1.8</text>
<text text-anchor="start" x="193.5" y="-87" font-family="Noto Sans CJK SC" font-size="10.00" fill="#172033"> &#160;&#160;&#160;&#160;&#160;&#160;&#160;</text>
<text text-anchor="start" x="212.5" y="-87" font-family="Noto Sans CJK SC" font-size="9.00" fill="#172033">1.8 &lt; 3.0</text>
<text text-anchor="start" x="248.5" y="-87" font-family="Noto Sans CJK SC" font-size="10.00" fill="#172033"> &#160;&#160;&#160;&#160;&#160;</text>
</g>
<!-- threshold&#45;&gt;low_sum -->
<g id="edge7" class="edge">
<title>threshold&#45;&gt;low_sum</title>
<path fill="none" stroke="#64748b" stroke-width="1.4" stroke-dasharray="5,2" d="M432.17,-151.8C432.17,-127.64 432.17,-88 432.17,-88 432.17,-88 288.11,-88 288.11,-88"/>
<polygon fill="#64748b" stroke="#64748b" stroke-width="1.4" points="288.11,-85.55 281.11,-88 288.11,-90.45 288.11,-85.55"/>
<text text-anchor="middle" x="382.54" y="-90.8" font-family="Noto Sans CJK SC" font-size="9.00" fill="#475569">比较</text>
</g>
<!-- high_sum -->
<g id="node10" class="node">
<title>high_sum</title>
<path fill="#d1fae5" stroke="#34d399" stroke-width="1.2" d="M749,-112C749,-112 667,-112 667,-112 661,-112 655,-106 655,-100 655,-100 655,-88 655,-88 655,-82 661,-76 667,-76 667,-76 749,-76 749,-76 755,-76 761,-82 761,-88 761,-88 761,-100 761,-100 761,-106 755,-112 749,-112"/>
<text text-anchor="start" x="666" y="-97" font-family="Noto Sans CJK SC" font-size="10.00" fill="#172033"> &#160;&#160;&#160;&#160;&#160;&#160;&#160;</text>
<text text-anchor="start" x="685" y="-97" font-family="Noto Sans CJK SC" font-weight="bold" font-size="10.00" fill="#172033">合计上界 = 3.7</text>
<text text-anchor="start" x="672.5" y="-87" font-family="Noto Sans CJK SC" font-size="10.00" fill="#172033"> &#160;&#160;&#160;&#160;&#160;&#160;&#160;</text>
<text text-anchor="start" x="691.5" y="-87" font-family="Noto Sans CJK SC" font-size="9.00" fill="#172033">3.7 ≥ 3.0</text>
<text text-anchor="start" x="729.5" y="-87" font-family="Noto Sans CJK SC" font-size="10.00" fill="#172033"> &#160;&#160;&#160;&#160;&#160;</text>
</g>
<!-- threshold&#45;&gt;high_sum -->
<g id="edge8" class="edge">
<title>threshold&#45;&gt;high_sum</title>
<path fill="none" stroke="#64748b" stroke-width="1.4" stroke-dasharray="5,2" d="M503.83,-151.97C503.83,-131.23 503.83,-100 503.83,-100 503.83,-100 647.89,-100 647.89,-100"/>
<polygon fill="#64748b" stroke="#64748b" stroke-width="1.4" points="647.89,-102.45 654.89,-100 647.89,-97.55 647.89,-102.45"/>
<text text-anchor="middle" x="540.38" y="-102.8" font-family="Noto Sans CJK SC" font-size="9.00" fill="#475569">比较</text>
</g>
<!-- low_a -->
<g id="node2" class="node">
<title>low_a</title>
<path fill="#ffffff" stroke="#cbd5e1" stroke-width="1.2" d="M319.5,-188C319.5,-188 256.5,-188 256.5,-188 250.5,-188 244.5,-182 244.5,-176 244.5,-176 244.5,-164 244.5,-164 244.5,-158 250.5,-152 256.5,-152 256.5,-152 319.5,-152 319.5,-152 325.5,-152 331.5,-158 331.5,-164 331.5,-164 331.5,-176 331.5,-176 331.5,-182 325.5,-188 319.5,-188"/>
<text text-anchor="start" x="273" y="-172.5" font-family="Noto Sans CJK SC" font-size="10.00" fill="#172033">数据库</text>
<text text-anchor="start" x="255.5" y="-163.3" font-family="Noto Sans CJK SC" font-size="9.00" fill="#172033">block max = 0.8</text>
</g>
<!-- low_a&#45;&gt;low_sum -->
<g id="edge1" class="edge">
<title>low_a&#45;&gt;low_sum</title>
<path fill="none" stroke="#64748b" stroke-width="1.4" d="M262.75,-151.99C262.75,-151.99 262.75,-119.15 262.75,-119.15"/>
<polygon fill="#64748b" stroke="#64748b" stroke-width="1.4" points="265.2,-119.15 262.75,-112.15 260.3,-119.15 265.2,-119.15"/>
</g>
<!-- low_b -->
<g id="node3" class="node">
<title>low_b</title>
<path fill="#ffffff" stroke="#cbd5e1" stroke-width="1.2" d="M208.5,-188C208.5,-188 145.5,-188 145.5,-188 139.5,-188 133.5,-182 133.5,-176 133.5,-176 133.5,-164 133.5,-164 133.5,-158 139.5,-152 145.5,-152 145.5,-152 208.5,-152 208.5,-152 214.5,-152 220.5,-158 220.5,-164 220.5,-164 220.5,-176 220.5,-176 220.5,-182 214.5,-188 208.5,-188"/>
<text text-anchor="start" x="167" y="-172.5" font-family="Noto Sans CJK SC" font-size="10.00" fill="#172033">索引</text>
<text text-anchor="start" x="144.5" y="-163.3" font-family="Noto Sans CJK SC" font-size="9.00" fill="#172033">block max = 0.6</text>
</g>
<!-- low_b&#45;&gt;low_sum -->
<g id="edge2" class="edge">
<title>low_b&#45;&gt;low_sum</title>
<path fill="none" stroke="#64748b" stroke-width="1.4" d="M197.75,-151.99C197.75,-151.99 197.75,-119.15 197.75,-119.15"/>
<polygon fill="#64748b" stroke="#64748b" stroke-width="1.4" points="200.2,-119.15 197.75,-112.15 195.3,-119.15 200.2,-119.15"/>
</g>
<!-- low_c -->
<g id="node4" class="node">
<title>low_c</title>
<path fill="#ffffff" stroke="#cbd5e1" stroke-width="1.2" d="M97.5,-188C97.5,-188 34.5,-188 34.5,-188 28.5,-188 22.5,-182 22.5,-176 22.5,-176 22.5,-164 22.5,-164 22.5,-158 28.5,-152 34.5,-152 34.5,-152 97.5,-152 97.5,-152 103.5,-152 109.5,-158 109.5,-164 109.5,-164 109.5,-176 109.5,-176 109.5,-182 103.5,-188 97.5,-188"/>
<text text-anchor="start" x="56" y="-172.5" font-family="Noto Sans CJK SC" font-size="10.00" fill="#172033">优化</text>
<text text-anchor="start" x="33.5" y="-163.3" font-family="Noto Sans CJK SC" font-size="9.00" fill="#172033">block max = 0.4</text>
</g>
<!-- low_c&#45;&gt;low_sum -->
<g id="edge3" class="edge">
<title>low_c&#45;&gt;low_sum</title>
<path fill="none" stroke="#64748b" stroke-width="1.4" d="M66,-151.99C66,-129.51 66,-94 66,-94 66,-94 167.96,-94 167.96,-94"/>
<polygon fill="#64748b" stroke="#64748b" stroke-width="1.4" points="167.96,-96.45 174.96,-94 167.96,-91.55 167.96,-96.45"/>
</g>
<!-- skip -->
<g id="node6" class="node">
<title>skip</title>
<path fill="#fee2e2" stroke="#ef4444" stroke-width="1.6" d="M316.5,-36C316.5,-36 139.5,-36 139.5,-36 133.5,-36 127.5,-30 127.5,-24 127.5,-24 127.5,-12 127.5,-12 127.5,-6 133.5,0 139.5,0 139.5,0 316.5,0 316.5,0 322.5,0 328.5,-6 328.5,-12 328.5,-12 328.5,-24 328.5,-24 328.5,-30 322.5,-36 316.5,-36"/>
<text text-anchor="start" x="201" y="-21" font-family="Noto Sans CJK SC" font-size="10.00" fill="#172033"> &#160;&#160;&#160;&#160;&#160;</text>
<text text-anchor="start" x="215" y="-21" font-family="Noto Sans CJK SC" font-weight="bold" font-size="10.00" fill="#172033">整块跳过</text>
<text text-anchor="start" x="138.5" y="-11" font-family="Noto Sans CJK SC" font-size="10.00" fill="#172033"> &#160;&#160;&#160;&#160;&#160;</text>
<text text-anchor="start" x="152.5" y="-11" font-family="Noto Sans CJK SC" font-size="9.00" fill="#172033">不解码 freq / norms，不做精确 BM25</text>
<text text-anchor="start" x="307.5" y="-11" font-family="Noto Sans CJK SC" font-size="10.00" fill="#172033"> &#160;&#160;&#160;</text>
</g>
<!-- low_sum&#45;&gt;skip -->
<g id="edge9" class="edge">
<title>low_sum&#45;&gt;skip</title>
<path fill="none" stroke="#ef4444" stroke-width="1.4" d="M228,-75.99C228,-75.99 228,-43.15 228,-43.15"/>
<polygon fill="#ef4444" stroke="#ef4444" stroke-width="1.4" points="230.45,-43.15 228,-36.15 225.55,-43.15 230.45,-43.15"/>
</g>
<!-- high_a -->
<g id="node7" class="node">
<title>high_a</title>
<path fill="#ffffff" stroke="#cbd5e1" stroke-width="1.2" d="M901.5,-188C901.5,-188 838.5,-188 838.5,-188 832.5,-188 826.5,-182 826.5,-176 826.5,-176 826.5,-164 826.5,-164 826.5,-158 832.5,-152 838.5,-152 838.5,-152 901.5,-152 901.5,-152 907.5,-152 913.5,-158 913.5,-164 913.5,-164 913.5,-176 913.5,-176 913.5,-182 907.5,-188 901.5,-188"/>
<text text-anchor="start" x="855" y="-172.5" font-family="Noto Sans CJK SC" font-size="10.00" fill="#172033">数据库</text>
<text text-anchor="start" x="837.5" y="-163.3" font-family="Noto Sans CJK SC" font-size="9.00" fill="#172033">block max = 1.9</text>
</g>
<!-- high_a&#45;&gt;high_sum -->
<g id="edge4" class="edge">
<title>high_a&#45;&gt;high_sum</title>
<path fill="none" stroke="#64748b" stroke-width="1.4" d="M870,-151.99C870,-129.51 870,-94 870,-94 870,-94 768.04,-94 768.04,-94"/>
<polygon fill="#64748b" stroke="#64748b" stroke-width="1.4" points="768.04,-91.55 761.04,-94 768.04,-96.45 768.04,-91.55"/>
</g>
<!-- high_b -->
<g id="node8" class="node">
<title>high_b</title>
<path fill="#ffffff" stroke="#cbd5e1" stroke-width="1.2" d="M790.5,-188C790.5,-188 727.5,-188 727.5,-188 721.5,-188 715.5,-182 715.5,-176 715.5,-176 715.5,-164 715.5,-164 715.5,-158 721.5,-152 727.5,-152 727.5,-152 790.5,-152 790.5,-152 796.5,-152 802.5,-158 802.5,-164 802.5,-164 802.5,-176 802.5,-176 802.5,-182 796.5,-188 790.5,-188"/>
<text text-anchor="start" x="749" y="-172.5" font-family="Noto Sans CJK SC" font-size="10.00" fill="#172033">索引</text>
<text text-anchor="start" x="726.5" y="-163.3" font-family="Noto Sans CJK SC" font-size="9.00" fill="#172033">block max = 1.1</text>
</g>
<!-- high_b&#45;&gt;high_sum -->
<g id="edge5" class="edge">
<title>high_b&#45;&gt;high_sum</title>
<path fill="none" stroke="#64748b" stroke-width="1.4" d="M738.25,-151.99C738.25,-151.99 738.25,-119.15 738.25,-119.15"/>
<polygon fill="#64748b" stroke="#64748b" stroke-width="1.4" points="740.7,-119.15 738.25,-112.15 735.8,-119.15 740.7,-119.15"/>
</g>
<!-- high_c -->
<g id="node9" class="node">
<title>high_c</title>
<path fill="#ffffff" stroke="#cbd5e1" stroke-width="1.2" d="M679.5,-188C679.5,-188 616.5,-188 616.5,-188 610.5,-188 604.5,-182 604.5,-176 604.5,-176 604.5,-164 604.5,-164 604.5,-158 610.5,-152 616.5,-152 616.5,-152 679.5,-152 679.5,-152 685.5,-152 691.5,-158 691.5,-164 691.5,-164 691.5,-176 691.5,-176 691.5,-182 685.5,-188 679.5,-188"/>
<text text-anchor="start" x="638" y="-172.5" font-family="Noto Sans CJK SC" font-size="10.00" fill="#172033">优化</text>
<text text-anchor="start" x="615.5" y="-163.3" font-family="Noto Sans CJK SC" font-size="9.00" fill="#172033">block max = 0.7</text>
</g>
<!-- high_c&#45;&gt;high_sum -->
<g id="edge6" class="edge">
<title>high_c&#45;&gt;high_sum</title>
<path fill="none" stroke="#64748b" stroke-width="1.4" d="M673.25,-151.99C673.25,-151.99 673.25,-119.15 673.25,-119.15"/>
<polygon fill="#64748b" stroke="#64748b" stroke-width="1.4" points="675.7,-119.15 673.25,-112.15 670.8,-119.15 675.7,-119.15"/>
</g>
<!-- evaluate -->
<g id="node11" class="node">
<title>evaluate</title>
<path fill="#d1fae5" stroke="#10b981" stroke-width="1.6" d="M799,-36C799,-36 617,-36 617,-36 611,-36 605,-30 605,-24 605,-24 605,-12 605,-12 605,-6 611,0 617,0 617,0 799,0 799,0 805,0 811,-6 811,-12 811,-12 811,-24 811,-24 811,-30 805,-36 799,-36"/>
<text text-anchor="start" x="671.5" y="-21" font-family="Noto Sans CJK SC" font-size="10.00" fill="#172033"> &#160;&#160;&#160;&#160;&#160;</text>
<text text-anchor="start" x="685.5" y="-21" font-family="Noto Sans CJK SC" font-weight="bold" font-size="10.00" fill="#172033">进入候选调度</text>
<text text-anchor="start" x="616" y="-11" font-family="Noto Sans CJK SC" font-size="10.00" fill="#172033"> &#160;&#160;&#160;&#160;&#160;</text>
<text text-anchor="start" x="630" y="-11" font-family="Noto Sans CJK SC" font-size="9.00" fill="#172033">再由 WAND / MAXSCORE 决定精确评分</text>
<text text-anchor="start" x="790" y="-11" font-family="Noto Sans CJK SC" font-size="10.00" fill="#172033"> &#160;&#160;&#160;</text>
</g>
<!-- high_sum&#45;&gt;evaluate -->
<g id="edge10" class="edge">
<title>high_sum&#45;&gt;evaluate</title>
<path fill="none" stroke="#10b981" stroke-width="1.4" d="M708,-75.99C708,-75.99 708,-43.15 708,-43.15"/>
<polygon fill="#10b981" stroke="#10b981" stroke-width="1.4" points="710.45,-43.15 708,-36.15 705.55,-43.15 710.45,-43.15"/>
</g>
</g>
</svg>
